SplineFontDB: 3.0
FontName: Digital-7
FullName: Digital-7
FamilyName: Digital-7
Weight: Book
Copyright: Created by Sizenko Alexander. (c) 2008 Style-7. All rights reserved. http://www.styleseven.com
Version: 1.020 April 07 2011
ItalicAngle: 0
UnderlinePosition: -155
UnderlineWidth: 70
Ascent: 880
Descent: 220
InvalidEm: 0
sfntRevision: 0x00010000
LayerCount: 2
Layer: 0 1 "Back" 1
Layer: 1 1 "Fore" 0
XUID: [1021 221 1541064865 5814970]
StyleMap: 0x0040
FSType: 0
OS2Version: 3
OS2_WeightWidthSlopeOnly: 0
OS2_UseTypoMetrics: 0
CreationTime: 1223007600
ModificationTime: 1513226881
PfmFamily: 17
TTFWeight: 400
TTFWidth: 5
LineGap: 0
VLineGap: 0
Panose: 2 0 0 0 0 0 0 0 0 0
OS2TypoAscent: 800
OS2TypoAOffset: 0
OS2TypoDescent: 200
OS2TypoDOffset: 0
OS2TypoLinegap: 0
OS2WinAscent: 900
OS2WinAOffset: 0
OS2WinDescent: 187
OS2WinDOffset: 0
HheadAscent: 800
HheadAOffset: 0
HheadDescent: 200
HheadDOffset: 0
OS2SubXSize: 700
OS2SubYSize: 650
OS2SubXOff: 0
OS2SubYOff: 143
OS2SupXSize: 700
OS2SupYSize: 650
OS2SupXOff: 0
OS2SupYOff: 453
OS2StrikeYSize: 50
OS2StrikeYPos: 259
OS2CapHeight: 700
OS2XHeight: 700
OS2Vendor: 'ALTS'
OS2CodePages: 00000001.00000000
OS2UnicodeRanges: 80000001.00000000.00000000.00000000
DEI: 91125
TtTable: prep
PUSHW_1
 130
CALL
PUSHW_1
 120
CALL
PUSHW_1
 110
CALL
PUSHW_1
 100
CALL
PUSHW_1
 90
CALL
PUSHW_1
 80
CALL
PUSHW_1
 70
CALL
PUSHW_1
 60
CALL
PUSHW_1
 50
CALL
PUSHW_1
 40
CALL
PUSHW_1
 30
CALL
PUSHW_1
 20
CALL
PUSHW_1
 10
CALL
NPUSHB
 14
 27
 27
 26
 26
 11
 11
 1
 1
 0
 0
 15
 15
 69
 1
SCANTYPE
PUSHW_1
 511
SCANCTRL
SROUND
RCVT
ROUND[Grey]
WCVTP
RTG
PUSHB_4
 2
 11
 70
 0
CALL
PUSHB_4
 3
 0
 70
 0
CALL
PUSHB_4
 4
 1
 70
 0
CALL
PUSHB_4
 5
 11
 70
 0
CALL
PUSHB_4
 6
 0
 70
 0
CALL
PUSHB_4
 7
 1
 70
 0
CALL
PUSHB_4
 8
 15
 70
 0
CALL
PUSHB_4
 9
 1
 70
 0
CALL
PUSHB_4
 10
 0
 70
 0
CALL
PUSHB_4
 12
 1
 70
 0
CALL
PUSHB_4
 13
 11
 70
 0
CALL
PUSHB_4
 14
 1
 70
 0
CALL
PUSHB_4
 16
 15
 70
 0
CALL
PUSHB_4
 17
 15
 70
 0
CALL
PUSHB_4
 18
 11
 70
 0
CALL
PUSHB_4

StartChar: .notdef
Encoding: 65536 -1 0
Width: 580
Flags: W
LayerCount: 2
Fore
SplineSet
460 0 m 1,0,-1
 100 0 l 1,1,2
 60 10 60 10 50 50 c 1,3,-1
 130 80 l 1,4,-1
 430 80 l 1,5,-1
 460 0 l 1,0,-1
430 640 m 1,6,-1
 131 640 l 1,7,-1
 51 670 l 1,8,9
 61 710 61 710 101 720 c 1,10,-1
 460 720 l 1,11,-1
 430 640 l 1,6,-1
130 100 m 1,12,-1
 50 70 l 1,13,-1
 50 650 l 1,14,-1
 130 620 l 1,15,-1
 130 100 l 1,12,-1
530 50 m 1,16,17
 520 10 520 10 480 0 c 1,18,-1
 450 80 l 1,19,-1
 450 640 l 1,20,-1
 480 720 l 1,21,22
 520 710 520 710 530 670 c 1,23,-1
 530 50 l 1,16,17
EndSplineSet
Validated: 1
EndChar

StartChar: exclam
Encoding: 33 33 4
Width: 180
Flags: W
LayerCount: 2
Fore
SplineSet
110 350 m 1,0,-1
 130 330 l 1,1,-1
 130 160 l 1,2,-1
 50 160 l 1,3,-1
 50 290 l 1,4,-1
 110 350 l 1,0,-1
50 430 m 1,5,-1
 50 640 l 1,6,-1
 80 720 l 1,7,8
 120 710 120 710 130 670 c 1,9,-1
 130 390 l 1,10,-1
 110 370 l 1,11,-1
 50 430 l 1,5,-1
130 0 m 1,12,-1
 50 0 l 1,13,-1
 50 80 l 1,14,-1
 130 80 l 1,15,-1
 130 0 l 1,12,-1
EndSplineSet
Validated: 1
EndChar

StartChar: quotedbl
Encoding: 34 34 5
Width: 341
Flags: W
LayerCount: 2
Fore
SplineSet
130 560 m 1,0,-1
 90 520 l 1,1,-1
 50 560 l 1,2,-1
 50 720 l 1,3,-1
 130 720 l 1,4,-1
 130 560 l 1,0,-1
291 561 m 1,5,-1
 251 521 l 1,6,-1
 211 561 l 1,7,-1
 211 721 l 1,8,-1
 291 721 l 1,9,-1
 291 561 l 1,5,-1
EndSplineSet
Validated: 1
EndChar

StartChar: numbersign
Encoding: 35 35 6
Width: 540
Flags: W
LayerCount: 2
Fore
SplineSet
290 480 m 1,0,-1
 330 440 l 1,1,-1
 290 400 l 1,2,-1
 250 400 l 1,3,-1
 210 440 l 1,4,-1
 250 480 l 1,5,-1
 290 480 l 1,0,-1
290 320 m 1,6,-1
 330 280 l 1,7,-1
 290 240 l 1,8,-1
 250 240 l 1,9,-1
 210 280 l 1,10,-1
 250 320 l 1,11,-1
 290 320 l 1,6,-1
150 380 m 1,12,-1
 190 420 l 1,13,-1
 230 380 l 1,14,-1
 230 340 l 1,15,-1
 190 300 l 1,16,-1
 150 340 l 1,17,-1
 150 380 l 1,12,-1
310 380 m 1,18,-1
 350 420 l 1,19,-1
 390 380 l 1,20,-1
 390 340 l 1,21,-1
 350 300 l 1,22,-1
 310 340 l 1,23,-1
 310 380 l 1,18,-1
150 560 m 1,24,-1
 190 600 l 1,25,-1
 230 560 l 1,26,-1
 230 500 l 1,27,-1
 190 460 l 1,28,-1
 150 500 l 1,29,-1
 150 560 l 1,24,-1
310 560 m 1,30,-1
 350 600 l 1,31,-1
 390 560 l 1,32,-1
 390 500 l 1,33,-1
 350 460 l 1,34,-1
 310 500 l 1,35,-1
 310 560 l 1,30,-1
310 221 m 1,36,-1
 350 261 l 1,37,-1
 390 221 l 1,38,-1
 390 160 l 1,39,-1
 350 120 l 1,40,-1
 310 160 l 1,41,-1
 310 221 l 1,36,-1
150 220 m 1,42,-1
 190 260 l 1,43,-1
 230 220 l 1,44,-1
 230 159 l 1,45,-1
 190 119 l 1,46,-1
 150 159 l 1,47,-1
 150 220 l 1,42,-1
130 320 m 1,48,-1
 170 280 l 1,49,-1
 130 240 l 1,50,-1
 90 240 l 1,51,-1
 50 280 l 1,52,-1
 90 320 l 1,53,-1
 130 320 l 1,48,-1
450 319 m 1,54,-1
 490 279 l 1,55,-1
 450 239 l 1,56,-1
 410 239 l 1,57,-1
 370 279 l 1,58,-1
 410 319 l 1,59,-1
 450 319 l 1,54,-1
450 480 m 1,60,-1
 490 440 l 1,61,-1
 450 400 l 1,62,-1
 410 400 l 1,63,-1
 370 440 l 1,64,-1
 410 480 l 1,65,-1
 450 480 l 1,60,-1
130 479 m 1,66,-1
 170 439 l 1,67,-1
 130 399 l 1,68,-1
 90 399 l 1,69,-1
 50 439 l 1,70,-1
 90 479 l 1,71,-1
 130 479 l 1,66,-1
EndSplineSet
Validated: 1
EndChar

StartChar: dollar
Encoding: 36 36 7
Width: 520
Flags: W
LayerCount: 2
Fore
SplineSet
390 400 m 1,0,-1
 430 360 l 1,1,-1
 390 320 l 1,2,-1
 130 320 l 1,3,-1
 90 360 l 1,4,-1
 130 400 l 1,5,-1
 390 400 l 1,0,-1
450 350 m 1,6,-1
 470 330 l 1,7,-1
 470 50 l 1,8,9
 460 10 460 10 420 0 c 1,10,-1
 390 80 l 1,11,-1
 390 290 l 1,12,-1
 450 350 l 1,6,-1
400 0 m 1,13,-1
 100 0 l 1,14,15
 60 10 60 10 50 50 c 1,16,-1
 130 80 l 1,17,-1
 370 80 l 1,18,-1
 400 0 l 1,13,-1
130 620 m 1,19,-1
 130 430 l 1,20,-1
 70 370 l 1,21,-1
 50 390 l 1,22,-1
 50 650 l 1,23,-1
 130 620 l 1,19,-1
131 640 m 1,24,-1
 51 670 l 1,25,26
 61 710 61 710 101 720 c 1,27,-1
 420 720 l 1,28,29
 460 710 460 710 470 670 c 1,30,-1
 390 640 l 1,31,-1
 131 640 l 1,24,-1
230 750 m 1,32,-1
 230 800 l 1,33,-1
 270 840 l 1,34,-1
 310 800 l 1,35,-1
 310 750 l 1,36,-1
 230 750 l 1,32,-1
230 430 m 1,37,-1
 230 610 l 1,38,-1
 310 610 l 1,39,-1
 310 430 l 1,40,-1
 230 430 l 1,37,-1
230 110 m 1,41,-1
 230 290 l 1,42,-1
 310 290 l 1,43,-1
 310 110 l 1,44,-1
 230 110 l 1,41,-1
310 -30 m 1,45,-1
 310 -80 l 1,46,-1
 270 -120 l 1,47,-1
 230 -80 l 1,48,-1
 230 -30 l 1,49,-1
 310 -30 l 1,45,-1
EndSplineSet
Validated: 1
EndChar

StartChar: percent
Encoding: 37 37 8
Width: 600
Flags: W
LayerCount: 2
Fore
SplineSet
311 478 m 1,0,-1
 430 720 l 1,1,2
 490 720 490 720 510 680 c 1,3,-1
 356 370 l 1,4,-1
 311 370 l 1,5,-1
 311 478 l 1,0,-1
289 242 m 1,6,-1
 170 0 l 1,7,8
 110 0 110 0 90 40 c 1,9,-1
 244 350 l 1,10,-1
 289 350 l 1,11,-1
 289 242 l 1,6,-1
190 640 m 1,12,-1
 130 640 l 1,13,-1
 50 670 l 1,14,15
 60 710 60 710 100 720 c 1,16,-1
 220 720 l 1,17,-1
 190 640 l 1,12,-1
130 620 m 1,18,-1
 130 560 l 1,19,-1
 100 480 l 1,20,21
 60 490 60 490 50 530 c 1,22,-1
 50 650 l 1,23,-1
 130 620 l 1,18,-1
150 560 m 1,24,-1
 210 560 l 1,25,-1
 290 530 l 1,26,27
 280 490 280 490 240 480 c 1,28,-1
 120 480 l 1,29,-1
 150 560 l 1,24,-1
210 580 m 1,30,-1
 210 640 l 1,31,-1
 240 720 l 1,32,33
 280 710 280 710 290 670 c 1,34,-1
 290 550 l 1,35,-1
 210 580 l 1,30,-1
470 100 m 1,36,-1
 470 160 l 1,37,-1
 500 240 l 1,38,39
 540 230 540 230 550 190 c 1,40,-1
 550 70 l 1,41,-1
 470 100 l 1,36,-1
450 160 m 1,42,-1
 390 160 l 1,43,-1
 310 190 l 1,44,45
 320 230 320 230 360 240 c 1,46,-1
 480 240 l 1,47,-1
 450 160 l 1,42,-1
390 140 m 1,48,-1
 390 80 l 1,49,-1
 360 0 l 1,50,51
 320 10 320 10 310 50 c 1,52,-1
 310 170 l 1,53,-1
 390 140 l 1,48,-1
410 80 m 1,54,-1
 470 80 l 1,55,-1
 550 50 l 1,56,57
 540 10 540 10 500 0 c 1,58,-1
 380 0 l 1,59,-1
 410 80 l 1,54,-1
EndSplineSet
Validated: 1
EndChar

StartChar: ampersand
Encoding: 38 38 9
Width: 560
Flags: W
LayerCount: 2
Fore
SplineSet
390 400 m 1,0,-1
 430 360 l 1,1,-1
 390 320 l 1,2,-1
 130 320 l 1,3,-1
 90 360 l 1,4,-1
 130 400 l 1,5,-1
 390 400 l 1,0,-1
450 350 m 1,6,-1
 470 330 l 1,7,-1
 470 100 l 1,8,-1
 420 100 l 1,9,-1
 390 130 l 1,10,-1
 390 290 l 1,11,-1
 450 350 l 1,6,-1
490 0 m 1,12,-1
 100 0 l 1,13,14
 60 10 60 10 50 50 c 1,15,-1
 130 80 l 1,16,-1
 450 80 l 1,17,-1
 510 20 l 1,18,-1
 490 0 l 1,12,-1
50 70 m 1,19,-1
 50 330 l 1,20,-1
 70 350 l 1,21,-1
 130 290 l 1,22,-1
 130 100 l 1,23,-1
 50 70 l 1,19,-1
330 600 m 1,24,-1
 170 600 l 1,25,-1
 90 630 l 1,26,27
 100 670 100 670 140 680 c 1,28,-1
 360 680 l 1,29,-1
 330 600 l 1,24,-1
170 580 m 1,30,-1
 170 470 l 1,31,-1
 110 410 l 1,32,-1
 90 430 l 1,33,-1
 90 610 l 1,34,-1
 170 580 l 1,30,-1
350 470 m 1,35,-1
 350 600 l 1,36,-1
 380 680 l 1,37,38
 420 670 420 670 430 630 c 1,39,-1
 430 430 l 1,40,-1
 410 410 l 1,41,-1
 350 470 l 1,35,-1
470 -20 m 1,42,-1
 470 -70 l 1,43,-1
 450 -90 l 1,44,-1
 390 -30 l 1,45,-1
 390 -20 l 1,46,-1
 470 -20 l 1,42,-1
EndSplineSet
Validated: 1
EndChar

StartChar: quotesingle
Encoding: 39 39 10
Width: 180
Flags: W
LayerCount: 2
Fore
SplineSet
130 560 m 1,0,-1
 90 520 l 1,1,-1
 50 560 l 1,2,-1
 50 720 l 1,3,-1
 130 720 l 1,4,-1
 130 560 l 1,0,-1
EndSplineSet
Validated: 1
EndChar

StartChar: parenleft
Encoding: 40 40 11
Width: 350
Flags: W
LayerCount: 2
Fore
SplineSet
260 640 m 1,0,-1
 150 640 l 1,1,-1
 110 680 l 1,2,-1
 150 720 l 1,3,-1
 260 720 l 1,4,-1
 300 680 l 1,5,-1
 260 640 l 1,0,-1
70 370 m 1,6,-1
 50 390 l 1,7,-1
 50 620 l 1,8,-1
 100 670 l 1,9,-1
 130 640 l 1,10,-1
 130 430 l 1,11,-1
 70 370 l 1,6,-1
300 40 m 1,12,-1
 260 0 l 1,13,-1
 150 0 l 1,14,-1
 110 40 l 1,15,-1
 150 80 l 1,16,-1
 260 80 l 1,17,-1
 300 40 l 1,12,-1
130 290 m 1,18,-1
 130 80 l 1,19,-1
 100 50 l 1,20,-1
 50 100 l 1,21,-1
 50 330 l 1,22,-1
 70 350 l 1,23,-1
 130 290 l 1,18,-1
EndSplineSet
Validated: 1
EndChar

StartChar: parenright
Encoding: 41 41 12
Width: 350
Flags: W
LayerCount: 2
Fore
SplineSet
90 80 m 1,0,-1
 200 80 l 1,1,-1
 240 40 l 1,2,-1
 200 0 l 1,3,-1
 90 0 l 1,4,-1
 50 40 l 1,5,-1
 90 80 l 1,0,-1
280 350 m 1,6,-1
 300 330 l 1,7,-1
 300 100 l 1,8,-1
 250 50 l 1,9,-1
 220 80 l 1,10,-1
 220 290 l 1,11,-1
 280 350 l 1,6,-1
50 680 m 1,12,-1
 90 720 l 1,13,-1
 200 720 l 1,14,-1
 240 680 l 1,15,-1
 200 640 l 1,16,-1
 90 640 l 1,17,-1
 50 680 l 1,12,-1
220 430 m 1,18,-1
 220 640 l 1,19,-1
 250 670 l 1,20,-1
 300 620 l 1,21,-1
 300 390 l 1,22,-1
 280 370 l 1,23,-1
 220 430 l 1,18,-1
EndSplineSet
Validated: 1
EndChar

StartChar: asterisk
Encoding: 42 42 13
Width: 430
Flags: W
LayerCount: 2
Fore
SplineSet
175 430 m 1,0,-1
 175 510 l 1,1,-1
 215 550 l 1,2,-1
 255 510 l 1,3,-1
 255 430 l 1,4,-1
 325 470 l 1,5,-1
 380 455 l 1,6,-1
 365 400 l 1,7,-1
 296 360 l 1,8,-1
 365 320 l 1,9,-1
 380 265 l 1,10,-1
 325 250 l 1,11,-1
 255 290 l 1,12,-1
 255 210 l 1,13,-1
 215 170 l 1,14,-1
 175 210 l 1,15,-1
 175 290 l 1,16,-1
 105 250 l 1,17,-1
 50 265 l 1,18,-1
 65 320 l 1,19,-1
 134 360 l 1,20,-1
 65 400 l 1,21,-1
 50 455 l 1,22,-1
 105 470 l 1,23,-1
 175 430 l 1,0,-1
EndSplineSet
Validated: 1
EndChar

StartChar: plus
Encoding: 43 43 14
Width: 440
Flags: W
LayerCount: 2
Fore
SplineSet
180 400 m 1,0,-1
 180 490 l 1,1,-1
 220 530 l 1,2,-1
 260 490 l 1,3,-1
 260 400 l 1,4,-1
 350 400 l 1,5,-1
 390 360 l 1,6,-1
 350 320 l 1,7,-1
 260 320 l 1,8,-1
 260 230 l 1,9,-1
 220 190 l 1,10,-1
 180 230 l 1,11,-1
 180 320 l 1,12,-1
 90 320 l 1,13,-1
 50 360 l 1,14,-1
 90 400 l 1,15,-1
 180 400 l 1,0,-1
EndSplineSet
Validated: 1
EndChar

StartChar: comma
Encoding: 44 44 15
Width: 180
Flags: W
LayerCount: 2
Fore
SplineSet
130 -80 m 1,0,-1
 90 -120 l 1,1,-1
 50 -80 l 1,2,-1
 50 80 l 1,3,-1
 130 80 l 1,4,-1
 130 -80 l 1,0,-1
EndSplineSet
Validated: 1
EndChar

StartChar: hyphen
Encoding: 45 45 16
Width: 440
Flags: W
LayerCount: 2
Fore
SplineSet
350 400 m 1,0,-1
 390 360 l 1,1,-1
 350 320 l 1,2,-1
 90 320 l 1,3,-1
 50 360 l 1,4,-1
 90 400 l 1,5,-1
 350 400 l 1,0,-1
EndSplineSet
Validated: 1
EndChar

StartChar: period
Encoding: 46 46 17
Width: 180
Flags: W
LayerCount: 2
Fore
SplineSet
130 0 m 1,0,-1
 50 0 l 1,1,-1
 50 80 l 1,2,-1
 130 80 l 1,3,-1
 130 0 l 1,0,-1
EndSplineSet
Validated: 1
EndChar

StartChar: slash
Encoding: 47 47 18
Width: 520
Flags: W
LayerCount: 2
Fore
SplineSet
271 478 m 1,0,-1
 390 720 l 1,1,2
 450 720 450 720 470 680 c 1,3,-1
 316 370 l 1,4,-1
 271 370 l 1,5,-1
 271 478 l 1,0,-1
249 242 m 1,6,-1
 130 0 l 1,7,8
 70 0 70 0 50 40 c 1,9,-1
 204 350 l 1,10,-1
 249 350 l 1,11,-1
 249 242 l 1,6,-1
EndSplineSet
Validated: 1
EndChar

StartChar: zero
Encoding: 48 48 19
Width: 520
Flags: W
LayerCount: 2
Fore
SplineSet
450 350 m 5,0,-1
 470 330 l 5,1,-1
 470 50 l 5,2,3
 460 10 460 10 420 0 c 5,4,-1
 390 80 l 5,5,-1
 390 290 l 5,6,-1
 450 350 l 5,0,-1
400 0 m 5,7,-1
 100 0 l 5,8,9
 60 10 60 10 50 50 c 5,10,-1
 130 80 l 5,11,-1
 370 80 l 5,12,-1
 400 0 l 5,7,-1
50 70 m 5,13,-1
 50 330 l 5,14,-1
 70 350 l 5,15,-1
 130 290 l 5,16,-1
 130 100 l 5,17,-1
 50 70 l 5,13,-1
370 640 m 5,18,-1
 131 640 l 5,19,-1
 51 670 l 5,20,21
 61 710 61 710 101 720 c 5,22,-1
 400 720 l 5,23,-1
 370 640 l 5,18,-1
130 620 m 5,24,-1
 130 430 l 5,25,-1
 70 370 l 5,26,-1
 50 390 l 5,27,-1
 50 650 l 5,28,-1
 130 620 l 5,24,-1
390 430 m 5,29,-1
 390 640 l 5,30,-1
 420 720 l 5,31,32
 460 710 460 710 470 670 c 5,33,-1
 470 390 l 5,34,-1
 450 370 l 5,35,-1
 390 430 l 5,29,-1
EndSplineSet
Validated: 1
EndChar

StartChar: one
Encoding: 49 49 20
Width: 520
Flags: W
LayerCount: 2
Fore
SplineSet
450 350 m 5,0,-1
 470 330 l 5,1,-1
 470 50 l 5,2,3
 460 10 460 10 420 0 c 5,4,-1
 390 80 l 5,5,-1
 390 290 l 5,6,-1
 450 350 l 5,0,-1
390 430 m 5,7,-1
 390 640 l 5,8,-1
 420 720 l 5,9,10
 460 710 460 710 470 670 c 5,11,-1
 470 390 l 5,12,-1
 450 370 l 5,13,-1
 390 430 l 5,7,-1
EndSplineSet
Validated: 1
EndChar

StartChar: two
Encoding: 50 50 21
Width: 520
Flags: W
LayerCount: 2
Fore
SplineSet
390 400 m 1,0,-1
 430 360 l 1,1,-1
 390 320 l 1,2,-1
 130 320 l 1,3,-1
 90 360 l 1,4,-1
 130 400 l 1,5,-1
 390 400 l 1,0,-1
430 0 m 1,6,-1
 100 0 l 1,7,8
 60 10 60 10 50 50 c 1,9,-1
 130 80 l 1,10,-1
 400 80 l 1,11,-1
 430 0 l 1,6,-1
50 70 m 1,12,-1
 50 330 l 1,13,-1
 70 350 l 1,14,-1
 130 290 l 1,15,-1
 130 100 l 1,16,-1
 50 70 l 1,12,-1
370 640 m 1,17,-1
 131 640 l 1,18,-1
 51 670 l 1,19,20
 61 710 61 710 101 720 c 1,21,-1
 400 720 l 1,22,-1
 370 640 l 1,17,-1
390 430 m 1,23,-1
 390 640 l 1,24,-1
 420 720 l 1,25,26
 460 710 460 710 470 670 c 1,27,-1
 470 390 l 1,28,-1
 450 370 l 1,29,-1
 390 430 l 1,23,-1
EndSplineSet
Validated: 1
EndChar

StartChar: three
Encoding: 51 51 22
Width: 520
Flags: W
LayerCount: 2
Fore
SplineSet
390 400 m 1,0,-1
 430 360 l 1,1,-1
 390 320 l 1,2,-1
 130 320 l 1,3,-1
 90 360 l 1,4,-1
 130 400 l 1,5,-1
 390 400 l 1,0,-1
450 350 m 1,6,-1
 470 330 l 1,7,-1
 470 50 l 1,8,9
 460 10 460 10 420 0 c 1,10,-1
 390 80 l 1,11,-1
 390 290 l 1,12,-1
 450 350 l 1,6,-1
400 0 m 1,13,-1
 100 0 l 1,14,15
 60 10 60 10 50 50 c 1,16,-1
 130 80 l 1,17,-1
 370 80 l 1,18,-1
 400 0 l 1,13,-1
370 640 m 1,19,-1
 131 640 l 1,20,-1
 51 670 l 1,21,22
 61 710 61 710 101 720 c 1,23,-1
 400 720 l 1,24,-1
 370 640 l 1,19,-1
390 430 m 1,25,-1
 390 640 l 1,26,-1
 420 720 l 1,27,28
 460 710 460 710 470 670 c 1,29,-1
 470 390 l 1,30,-1
 450 370 l 1,31,-1
 390 430 l 1,25,-1
EndSplineSet
Validated: 1
EndChar

StartChar: four
Encoding: 52 52 23
Width: 520
Flags: W
LayerCount: 2
Fore
SplineSet
390 400 m 1,0,-1
 430 360 l 1,1,-1
 390 320 l 1,2,-1
 130 320 l 1,3,-1
 90 360 l 1,4,-1
 130 400 l 1,5,-1
 390 400 l 1,0,-1
450 350 m 1,6,-1
 470 330 l 1,7,-1
 470 50 l 1,8,9
 460 10 460 10 420 0 c 1,10,-1
 390 80 l 1,11,-1
 390 290 l 1,12,-1
 450 350 l 1,6,-1
130 650 m 1,13,-1
 130 430 l 1,14,-1
 70 370 l 1,15,-1
 50 390 l 1,16,-1
 50 680 l 1,17,-1
 130 650 l 1,13,-1
390 430 m 1,18,-1
 390 640 l 1,19,-1
 420 720 l 1,20,21
 460 710 460 710 470 670 c 1,22,-1
 470 390 l 1,23,-1
 450 370 l 1,24,-1
 390 430 l 1,18,-1
EndSplineSet
Validated: 1
EndChar

StartChar: five
Encoding: 53 53 24
Width: 520
Flags: W
LayerCount: 2
Fore
SplineSet
390 400 m 1,0,-1
 430 360 l 1,1,-1
 390 320 l 1,2,-1
 130 320 l 1,3,-1
 90 360 l 1,4,-1
 130 400 l 1,5,-1
 390 400 l 1,0,-1
450 350 m 1,6,-1
 470 330 l 1,7,-1
 470 50 l 1,8,9
 460 10 460 10 420 0 c 1,10,-1
 390 80 l 1,11,-1
 390 290 l 1,12,-1
 450 350 l 1,6,-1
400 0 m 1,13,-1
 100 0 l 1,14,15
 60 10 60 10 50 50 c 1,16,-1
 130 80 l 1,17,-1
 370 80 l 1,18,-1
 400 0 l 1,13,-1
400 640 m 1,19,-1
 131 640 l 1,20,-1
 51 670 l 1,21,22
 61 710 61 710 101 720 c 1,23,-1
 430 720 l 1,24,-1
 400 640 l 1,19,-1
130 620 m 1,25,-1
 130 430 l 1,26,-1
 70 370 l 1,27,-1
 50 390 l 1,28,-1
 50 650 l 1,29,-1
 130 620 l 1,25,-1
EndSplineSet
Validated: 1
EndChar

StartChar: six
Encoding: 54 54 25
Width: 520
Flags: W
LayerCount: 2
Fore
SplineSet
390 400 m 1,0,-1
 430 360 l 1,1,-1
 390 320 l 1,2,-1
 130 320 l 1,3,-1
 90 360 l 1,4,-1
 130 400 l 1,5,-1
 390 400 l 1,0,-1
450 350 m 1,6,-1
 470 330 l 1,7,-1
 470 50 l 1,8,9
 460 10 460 10 420 0 c 1,10,-1
 390 80 l 1,11,-1
 390 290 l 1,12,-1
 450 350 l 1,6,-1
400 0 m 1,13,-1
 100 0 l 1,14,15
 60 10 60 10 50 50 c 1,16,-1
 130 80 l 1,17,-1
 370 80 l 1,18,-1
 400 0 l 1,13,-1
50 70 m 1,19,-1
 50 330 l 1,20,-1
 70 350 l 1,21,-1
 130 290 l 1,22,-1
 130 100 l 1,23,-1
 50 70 l 1,19,-1
400 640 m 1,24,-1
 131 640 l 1,25,-1
 51 670 l 1,26,27
 61 710 61 710 101 720 c 1,28,-1
 430 720 l 1,29,-1
 400 640 l 1,24,-1
130 620 m 1,30,-1
 130 430 l 1,31,-1
 70 370 l 1,32,-1
 50 390 l 1,33,-1
 50 650 l 1,34,-1
 130 620 l 1,30,-1
EndSplineSet
Validated: 1
EndChar

StartChar: seven
Encoding: 55 55 26
Width: 520
Flags: W
LayerCount: 2
Fore
SplineSet
450 350 m 1,0,-1
 470 330 l 1,1,-1
 470 50 l 1,2,3
 460 10 460 10 420 0 c 1,4,-1
 390 80 l 1,5,-1
 390 290 l 1,6,-1
 450 350 l 1,0,-1
370 640 m 1,7,-1
 131 640 l 1,8,-1
 51 670 l 1,9,10
 61 710 61 710 101 720 c 1,11,-1
 400 720 l 1,12,-1
 370 640 l 1,7,-1
130 620 m 1,13,-1
 130 430 l 1,14,-1
 70 370 l 1,15,-1
 50 390 l 1,16,-1
 50 650 l 1,17,-1
 130 620 l 1,13,-1
390 430 m 1,18,-1
 390 640 l 1,19,-1
 420 720 l 1,20,21
 460 710 460 710 470 670 c 1,22,-1
 470 390 l 1,23,-1
 450 370 l 1,24,-1
 390 430 l 1,18,-1
EndSplineSet
Validated: 1
EndChar

StartChar: eight
Encoding: 56 56 27
Width: 520
Flags: W
LayerCount: 2
Fore
SplineSet
390 400 m 1,0,-1
 430 360 l 1,1,-1
 390 320 l 1,2,-1
 130 320 l 1,3,-1
 90 360 l 1,4,-1
 130 400 l 1,5,-1
 390 400 l 1,0,-1
450 350 m 1,6,-1
 470 330 l 1,7,-1
 470 50 l 1,8,9
 460 10 460 10 420 0 c 1,10,-1
 390 80 l 1,11,-1
 390 290 l 1,12,-1
 450 350 l 1,6,-1
400 0 m 1,13,-1
 100 0 l 1,14,15
 60 10 60 10 50 50 c 1,16,-1
 130 80 l 1,17,-1
 370 80 l 1,18,-1
 400 0 l 1,13,-1
50 70 m 1,19,-1
 50 330 l 1,20,-1
 70 350 l 1,21,-1
 130 290 l 1,22,-1
 130 100 l 1,23,-1
 50 70 l 1,19,-1
370 640 m 1,24,-1
 131 640 l 1,25,-1
 51 670 l 1,26,27
 61 710 61 710 101 720 c 1,28,-1
 400 720 l 1,29,-1
 370 640 l 1,24,-1
130 620 m 1,30,-1
 130 430 l 1,31,-1
 70 370 l 1,32,-1
 50 390 l 1,33,-1
 50 650 l 1,34,-1
 130 620 l 1,30,-1
390 430 m 1,35,-1
 390 640 l 1,36,-1
 420 720 l 1,37,38
 460 710 460 710 470 670 c 1,39,-1
 470 390 l 1,40,-1
 450 370 l 1,41,-1
 390 430 l 1,35,-1
EndSplineSet
Validated: 1
EndChar

StartChar: nine
Encoding: 57 57 28
Width: 520
Flags: W
LayerCount: 2
Fore
SplineSet
390 400 m 1,0,-1
 430 360 l 1,1,-1
 390 320 l 1,2,-1
 130 320 l 1,3,-1
 90 360 l 1,4,-1
 130 400 l 1,5,-1
 390 400 l 1,0,-1
450 350 m 1,6,-1
 470 330 l 1,7,-1
 470 50 l 1,8,9
 460 10 460 10 420 0 c 1,10,-1
 390 80 l 1,11,-1
 390 290 l 1,12,-1
 450 350 l 1,6,-1
400 0 m 1,13,-1
 100 0 l 1,14,15
 60 10 60 10 50 50 c 1,16,-1
 130 80 l 1,17,-1
 370 80 l 1,18,-1
 400 0 l 1,13,-1
370 640 m 1,19,-1
 131 640 l 1,20,-1
 51 670 l 1,21,22
 61 710 61 710 101 720 c 1,23,-1
 400 720 l 1,24,-1
 370 640 l 1,19,-1
130 620 m 1,25,-1
 130 430 l 1,26,-1
 70 370 l 1,27,-1
 50 390 l 1,28,-1
 50 650 l 1,29,-1
 130 620 l 1,25,-1
390 430 m 1,30,-1
 390 640 l 1,31,-1
 420 720 l 1,32,33
 460 710 460 710 470 670 c 1,34,-1
 470 390 l 1,35,-1
 450 370 l 1,36,-1
 390 430 l 1,30,-1
EndSplineSet
Validated: 1
EndChar

StartChar: colon
Encoding: 58 58 29
Width: 180
Flags: W
LayerCount: 2
Fore
SplineSet
130 160 m 1,0,-1
 50 160 l 1,1,-1
 50 240 l 1,2,-1
 130 240 l 1,3,-1
 130 160 l 1,0,-1
130 480 m 1,4,-1
 50 480 l 1,5,-1
 50 560 l 1,6,-1
 130 560 l 1,7,-1
 130 480 l 1,4,-1
EndSplineSet
Validated: 1
EndChar

StartChar: semicolon
Encoding: 59 59 30
Width: 180
Flags: W
LayerCount: 2
Fore
SplineSet
130 480 m 1,0,-1
 50 480 l 1,1,-1
 50 560 l 1,2,-1
 130 560 l 1,3,-1
 130 480 l 1,0,-1
130 -80 m 1,4,-1
 90 -120 l 1,5,-1
 50 -80 l 1,6,-1
 50 80 l 1,7,-1
 130 80 l 1,8,-1
 130 -80 l 1,4,-1
EndSplineSet
Validated: 1
EndChar

StartChar: less
Encoding: 60 60 31
Width: 370
Flags: W
LayerCount: 2
Fore
SplineSet
160 370 m 1,0,-1
 50 370 l 1,1,-1
 250 570 l 1,2,-1
 290 570 l 1,3,-1
 320 531 l 1,4,-1
 160 370 l 1,0,-1
320 189 m 1,5,-1
 290 150 l 1,6,-1
 250 150 l 1,7,-1
 50 350 l 1,8,-1
 160 350 l 1,9,-1
 320 189 l 1,5,-1
EndSplineSet
Validated: 1
EndChar

StartChar: equal
Encoding: 61 61 32
Width: 440
Flags: W
LayerCount: 2
Fore
SplineSet
350 480 m 1,0,-1
 390 440 l 1,1,-1
 350 400 l 1,2,-1
 90 400 l 1,3,-1
 50 440 l 1,4,-1
 90 480 l 1,5,-1
 350 480 l 1,0,-1
350 319 m 1,6,-1
 390 279 l 1,7,-1
 350 239 l 1,8,-1
 90 239 l 1,9,-1
 50 279 l 1,10,-1
 90 319 l 1,11,-1
 350 319 l 1,6,-1
EndSplineSet
Validated: 1
EndChar

StartChar: greater
Encoding: 62 62 33
Width: 370
Flags: W
LayerCount: 2
Fore
SplineSet
50 531 m 1,0,-1
 80 570 l 1,1,-1
 120 570 l 1,2,-1
 320 370 l 1,3,-1
 210 370 l 1,4,-1
 50 531 l 1,0,-1
210 350 m 1,5,-1
 320 350 l 1,6,-1
 120 150 l 1,7,-1
 80 150 l 1,8,-1
 50 189 l 1,9,-1
 210 350 l 1,5,-1
EndSplineSet
Validated: 1
EndChar

StartChar: question
Encoding: 63 63 34
Width: 520
Flags: W
LayerCount: 2
Fore
SplineSet
390 400 m 1,0,-1
 430 360 l 1,1,-1
 390 320 l 1,2,-1
 130 320 l 1,3,-1
 90 360 l 1,4,-1
 130 400 l 1,5,-1
 390 400 l 1,0,-1
50 160 m 1,6,-1
 50 330 l 1,7,-1
 70 350 l 1,8,-1
 130 290 l 1,9,-1
 130 160 l 1,10,-1
 50 160 l 1,6,-1
370 640 m 1,11,-1
 131 640 l 1,12,-1
 51 670 l 1,13,14
 61 710 61 710 101 720 c 1,15,-1
 400 720 l 1,16,-1
 370 640 l 1,11,-1
390 430 m 1,17,-1
 390 640 l 1,18,-1
 420 720 l 1,19,20
 460 710 460 710 470 670 c 1,21,-1
 470 390 l 1,22,-1
 450 370 l 1,23,-1
 390 430 l 1,17,-1
130 0 m 1,24,-1
 50 0 l 1,25,-1
 50 80 l 1,26,-1
 130 80 l 1,27,-1
 130 0 l 1,24,-1
EndSplineSet
Validated: 1
EndChar

StartChar: at
Encoding: 64 64 35
Width: 520
Flags: W
LayerCount: 2
Fore
SplineSet
450 350 m 1,0,-1
 470 330 l 1,1,-1
 470 210 l 1,2,3
 460 170 460 170 420 160 c 1,4,-1
 390 240 l 1,5,-1
 390 290 l 1,6,-1
 450 350 l 1,0,-1
400 0 m 1,7,-1
 100 0 l 1,8,9
 60 10 60 10 50 50 c 1,10,-1
 130 80 l 1,11,-1
 370 80 l 1,12,-1
 400 0 l 1,7,-1
50 70 m 1,13,-1
 50 330 l 1,14,-1
 70 350 l 1,15,-1
 130 290 l 1,16,-1
 130 100 l 1,17,-1
 50 70 l 1,13,-1
370 640 m 1,18,-1
 131 640 l 1,19,-1
 51 670 l 1,20,21
 61 710 61 710 101 720 c 1,22,-1
 400 720 l 1,23,-1
 370 640 l 1,18,-1
130 620 m 1,24,-1
 130 430 l 1,25,-1
 70 370 l 1,26,-1
 50 390 l 1,27,-1
 50 650 l 1,28,-1
 130 620 l 1,24,-1
390 430 m 1,29,-1
 390 640 l 1,30,-1
 420 720 l 1,31,32
 460 710 460 710 470 670 c 1,33,-1
 470 390 l 1,34,-1
 450 370 l 1,35,-1
 390 430 l 1,29,-1
400 160 m 1,36,-1
 260 159 l 1,37,38
 220 169 220 169 210 209 c 1,39,-1
 290 240 l 1,40,-1
 370 240 l 1,41,-1
 400 160 l 1,36,-1
210 230 m 1,42,-1
 210 330 l 1,43,-1
 230 350 l 1,44,-1
 290 290 l 1,45,-1
 290 260 l 1,46,-1
 210 230 l 1,42,-1
290 460 m 1,47,-1
 290 430 l 1,48,-1
 230 370 l 1,49,-1
 210 390 l 1,50,-1
 210 490 l 1,51,-1
 290 460 l 1,47,-1
370 480 m 1,52,-1
 290 480 l 1,53,-1
 210 511 l 1,54,55
 220 551 220 551 260 561 c 1,56,-1
 370 560 l 1,57,-1
 370 480 l 1,52,-1
EndSplineSet
Validated: 1
EndChar

StartChar: A
Encoding: 65 65 36
Width: 520
Flags: W
LayerCount: 2
Fore
SplineSet
390 400 m 1,0,-1
 430 360 l 1,1,-1
 390 320 l 1,2,-1
 130 320 l 1,3,-1
 90 360 l 1,4,-1
 130 400 l 1,5,-1
 390 400 l 1,0,-1
450 350 m 1,6,-1
 470 330 l 1,7,-1
 470 50 l 1,8,9
 460 10 460 10 420 0 c 1,10,-1
 390 80 l 1,11,-1
 390 290 l 1,12,-1
 450 350 l 1,6,-1
370 640 m 1,13,-1
 131 640 l 1,14,-1
 51 670 l 1,15,16
 61 710 61 710 101 720 c 1,17,-1
 400 720 l 1,18,-1
 370 640 l 1,13,-1
130 620 m 1,19,-1
 130 430 l 1,20,-1
 70 370 l 1,21,-1
 50 390 l 1,22,-1
 50 650 l 1,23,-1
 130 620 l 1,19,-1
390 430 m 1,24,-1
 390 640 l 1,25,-1
 420 720 l 1,26,27
 460 710 460 710 470 670 c 1,28,-1
 470 390 l 1,29,-1
 450 370 l 1,30,-1
 390 430 l 1,24,-1
130 290 m 1,31,-1
 130 80 l 1,32,-1
 100 0 l 1,33,34
 60 10 60 10 50 50 c 1,35,-1
 50 330 l 1,36,-1
 70 350 l 1,37,-1
 130 290 l 1,31,-1
EndSplineSet
Validated: 1
EndChar

StartChar: B
Encoding: 66 66 37
Width: 520
Flags: W
LayerCount: 2
Fore
SplineSet
390 400 m 1,0,-1
 430 360 l 1,1,-1
 390 320 l 1,2,-1
 130 320 l 1,3,-1
 90 360 l 1,4,-1
 130 400 l 1,5,-1
 390 400 l 1,0,-1
50 70 m 1,6,-1
 50 330 l 1,7,-1
 70 350 l 1,8,-1
 130 290 l 1,9,-1
 130 100 l 1,10,-1
 50 70 l 1,6,-1
370 640 m 1,11,-1
 130 640 l 1,12,-1
 50 670 l 1,13,-1
 50 720 l 1,14,-1
 370 720 l 1,15,-1
 410 680 l 1,16,-1
 370 640 l 1,11,-1
130 620 m 1,17,-1
 130 430 l 1,18,-1
 70 370 l 1,19,-1
 50 390 l 1,20,-1
 50 650 l 1,21,-1
 130 620 l 1,17,-1
390 430 m 1,22,-1
 390 640 l 1,23,-1
 420 670 l 1,24,-1
 470 620 l 1,25,-1
 470 390 l 1,26,-1
 450 370 l 1,27,-1
 390 430 l 1,22,-1
450 350 m 1,28,-1
 470 330 l 1,29,-1
 470 100 l 1,30,-1
 420 50 l 1,31,-1
 390 80 l 1,32,-1
 390 290 l 1,33,-1
 450 350 l 1,28,-1
409 40 m 1,34,-1
 369 0 l 1,35,-1
 50 0 l 1,36,-1
 50 50 l 1,37,-1
 130 80 l 1,38,-1
 369 80 l 1,39,-1
 409 40 l 1,34,-1
EndSplineSet
Validated: 1
EndChar

StartChar: C
Encoding: 67 67 38
Width: 480
Flags: W
LayerCount: 2
Fore
SplineSet
430 0 m 1,0,-1
 100 0 l 1,1,2
 60 10 60 10 50 50 c 1,3,-1
 130 80 l 1,4,-1
 400 80 l 1,5,-1
 430 0 l 1,0,-1
50 70 m 1,6,-1
 50 330 l 1,7,-1
 70 350 l 1,8,-1
 130 290 l 1,9,-1
 130 100 l 1,10,-1
 50 70 l 1,6,-1
400 640 m 1,11,-1
 131 640 l 1,12,-1
 51 670 l 1,13,14
 61 710 61 710 101 720 c 1,15,-1
 430 720 l 1,16,-1
 400 640 l 1,11,-1
130 620 m 1,17,-1
 130 430 l 1,18,-1
 70 370 l 1,19,-1
 50 390 l 1,20,-1
 50 650 l 1,21,-1
 130 620 l 1,17,-1
EndSplineSet
Validated: 1
EndChar

StartChar: D
Encoding: 68 68 39
Width: 520
Flags: W
LayerCount: 2
Fore
SplineSet
50 70 m 1,0,-1
 50 330 l 1,1,-1
 70 350 l 1,2,-1
 130 290 l 1,3,-1
 130 100 l 1,4,-1
 50 70 l 1,0,-1
370 640 m 1,5,-1
 130 640 l 1,6,-1
 50 670 l 1,7,-1
 50 720 l 1,8,-1
 370 720 l 1,9,-1
 410 680 l 1,10,-1
 370 640 l 1,5,-1
130 620 m 1,11,-1
 130 430 l 1,12,-1
 70 370 l 1,13,-1
 50 390 l 1,14,-1
 50 650 l 1,15,-1
 130 620 l 1,11,-1
390 430 m 1,16,-1
 390 640 l 1,17,-1
 420 670 l 1,18,-1
 470 620 l 1,19,-1
 470 390 l 1,20,-1
 450 370 l 1,21,-1
 390 430 l 1,16,-1
450 350 m 1,22,-1
 470 330 l 1,23,-1
 470 100 l 1,24,-1
 420 50 l 1,25,-1
 390 80 l 1,26,-1
 390 290 l 1,27,-1
 450 350 l 1,22,-1
409 40 m 1,28,-1
 369 0 l 1,29,-1
 50 0 l 1,30,-1
 50 50 l 1,31,-1
 130 80 l 1,32,-1
 369 80 l 1,33,-1
 409 40 l 1,28,-1
EndSplineSet
Validated: 1
EndChar

StartChar: E
Encoding: 69 69 40
Width: 480
Flags: W
LayerCount: 2
Fore
SplineSet
390 400 m 1,0,-1
 430 360 l 1,1,-1
 390 320 l 1,2,-1
 130 320 l 1,3,-1
 90 360 l 1,4,-1
 130 400 l 1,5,-1
 390 400 l 1,0,-1
430 0 m 1,6,-1
 100 0 l 1,7,8
 60 10 60 10 50 50 c 1,9,-1
 130 80 l 1,10,-1
 400 80 l 1,11,-1
 430 0 l 1,6,-1
50 70 m 1,12,-1
 50 330 l 1,13,-1
 70 350 l 1,14,-1
 130 290 l 1,15,-1
 130 100 l 1,16,-1
 50 70 l 1,12,-1
400 640 m 1,17,-1
 131 640 l 1,18,-1
 51 670 l 1,19,20
 61 710 61 710 101 720 c 1,21,-1
 430 720 l 1,22,-1
 400 640 l 1,17,-1
130 620 m 1,23,-1
 130 430 l 1,24,-1
 70 370 l 1,25,-1
 50 390 l 1,26,-1
 50 650 l 1,27,-1
 130 620 l 1,23,-1
EndSplineSet
Validated: 1
EndChar

StartChar: F
Encoding: 70 70 41
Width: 480
Flags: W
LayerCount: 2
Fore
SplineSet
390 400 m 1,0,-1
 430 360 l 1,1,-1
 390 320 l 1,2,-1
 130 320 l 1,3,-1
 90 360 l 1,4,-1
 130 400 l 1,5,-1
 390 400 l 1,0,-1
400 640 m 1,6,-1
 131 640 l 1,7,-1
 51 670 l 1,8,9
 61 710 61 710 101 720 c 1,10,-1
 430 720 l 1,11,-1
 400 640 l 1,6,-1
130 620 m 1,12,-1
 130 430 l 1,13,-1
 70 370 l 1,14,-1
 50 390 l 1,15,-1
 50 650 l 1,16,-1
 130 620 l 1,12,-1
130 290 m 1,17,-1
 130 80 l 1,18,-1
 100 0 l 1,19,20
 60 10 60 10 50 50 c 1,21,-1
 50 330 l 1,22,-1
 70 350 l 1,23,-1
 130 290 l 1,17,-1
EndSplineSet
Validated: 1
EndChar

StartChar: G
Encoding: 71 71 42
Width: 520
Flags: W
LayerCount: 2
Fore
SplineSet
390 400 m 1,0,-1
 430 360 l 1,1,-1
 390 320 l 1,2,-1
 300 320 l 1,3,-1
 260 360 l 1,4,-1
 300 400 l 1,5,-1
 390 400 l 1,0,-1
450 350 m 1,6,-1
 470 330 l 1,7,-1
 470 50 l 1,8,9
 460 10 460 10 420 0 c 1,10,-1
 390 80 l 1,11,-1
 390 290 l 1,12,-1
 450 350 l 1,6,-1
400 0 m 1,13,-1
 100 0 l 1,14,15
 60 10 60 10 50 50 c 1,16,-1
 130 80 l 1,17,-1
 370 80 l 1,18,-1
 400 0 l 1,13,-1
50 70 m 1,19,-1
 50 330 l 1,20,-1
 70 350 l 1,21,-1
 130 290 l 1,22,-1
 130 100 l 1,23,-1
 50 70 l 1,19,-1
400 640 m 1,24,-1
 131 640 l 1,25,-1
 51 670 l 1,26,27
 61 710 61 710 101 720 c 1,28,-1
 430 720 l 1,29,-1
 400 640 l 1,24,-1
130 620 m 1,30,-1
 130 430 l 1,31,-1
 70 370 l 1,32,-1
 50 390 l 1,33,-1
 50 650 l 1,34,-1
 130 620 l 1,30,-1
EndSplineSet
Validated: 1
EndChar

StartChar: H
Encoding: 72 72 43
Width: 520
Flags: W
LayerCount: 2
Fore
SplineSet
390 400 m 1,0,-1
 430 360 l 1,1,-1
 390 320 l 1,2,-1
 130 320 l 1,3,-1
 90 360 l 1,4,-1
 130 400 l 1,5,-1
 390 400 l 1,0,-1
450 350 m 1,6,-1
 470 330 l 1,7,-1
 470 50 l 1,8,9
 460 10 460 10 420 0 c 1,10,-1
 390 80 l 1,11,-1
 390 290 l 1,12,-1
 450 350 l 1,6,-1
390 430 m 1,13,-1
 390 640 l 1,14,-1
 420 720 l 1,15,16
 460 710 460 710 470 670 c 1,17,-1
 470 390 l 1,18,-1
 450 370 l 1,19,-1
 390 430 l 1,13,-1
130 290 m 1,20,-1
 130 80 l 1,21,-1
 100 0 l 1,22,23
 60 10 60 10 50 50 c 1,24,-1
 50 330 l 1,25,-1
 70 350 l 1,26,-1
 130 290 l 1,20,-1
70 360 m 1,27,-1
 50 380 l 1,28,-1
 50 660 l 1,29,30
 60 700 60 700 100 710 c 1,31,-1
 130 630 l 1,32,-1
 130 420 l 1,33,-1
 70 360 l 1,27,-1
EndSplineSet
Validated: 1
EndChar

StartChar: I
Encoding: 73 73 44
Width: 180
Flags: W
LayerCount: 2
Fore
SplineSet
50 430 m 1,0,-1
 50 640 l 1,1,-1
 80 720 l 1,2,3
 120 710 120 710 130 670 c 1,4,-1
 130 390 l 1,5,-1
 110 370 l 1,6,-1
 50 430 l 1,0,-1
110 360 m 1,7,-1
 130 340 l 1,8,-1
 130 60 l 1,9,10
 120 20 120 20 80 10 c 1,11,-1
 50 90 l 1,12,-1
 50 300 l 1,13,-1
 110 360 l 1,7,-1
EndSplineSet
Validated: 1
EndChar

StartChar: J
Encoding: 74 74 45
Width: 520
Flags: W
LayerCount: 2
Fore
SplineSet
450 350 m 1,0,-1
 470 330 l 1,1,-1
 470 50 l 1,2,3
 460 10 460 10 420 0 c 1,4,-1
 390 80 l 1,5,-1
 390 290 l 1,6,-1
 450 350 l 1,0,-1
400 0 m 1,7,-1
 100 0 l 1,8,9
 60 10 60 10 50 50 c 1,10,-1
 130 80 l 1,11,-1
 370 80 l 1,12,-1
 400 0 l 1,7,-1
50 70 m 1,13,-1
 50 330 l 1,14,-1
 70 350 l 1,15,-1
 130 290 l 1,16,-1
 130 100 l 1,17,-1
 50 70 l 1,13,-1
390 430 m 1,18,-1
 390 640 l 1,19,-1
 420 720 l 1,20,21
 460 710 460 710 470 670 c 1,22,-1
 470 390 l 1,23,-1
 450 370 l 1,24,-1
 390 430 l 1,18,-1
EndSplineSet
Validated: 1
EndChar

StartChar: K
Encoding: 75 75 46
Width: 520
Flags: W
LayerCount: 2
Fore
SplineSet
390 400 m 1,0,-1
 430 360 l 1,1,-1
 390 320 l 1,2,-1
 130 320 l 1,3,-1
 90 360 l 1,4,-1
 130 400 l 1,5,-1
 390 400 l 1,0,-1
450 350 m 1,6,-1
 470 330 l 1,7,-1
 470 50 l 1,8,9
 460 10 460 10 420 0 c 1,10,-1
 390 80 l 1,11,-1
 390 290 l 1,12,-1
 450 350 l 1,6,-1
150 480 m 1,13,-1
 390 720 l 1,14,15
 450 720 450 720 470 680 c 1,16,-1
 210 420 l 1,17,-1
 150 420 l 1,18,-1
 150 480 l 1,13,-1
130 290 m 1,19,-1
 130 80 l 1,20,-1
 100 0 l 1,21,22
 60 10 60 10 50 50 c 1,23,-1
 50 330 l 1,24,-1
 70 350 l 1,25,-1
 130 290 l 1,19,-1
70 370 m 1,26,-1
 50 390 l 1,27,-1
 50 670 l 1,28,29
 60 710 60 710 100 720 c 1,30,-1
 130 640 l 1,31,-1
 130 430 l 1,32,-1
 70 370 l 1,26,-1
EndSplineSet
Validated: 1
EndChar

StartChar: L
Encoding: 76 76 47
Width: 520
Flags: W
LayerCount: 2
Fore
SplineSet
130 290 m 1,0,-1
 130 80 l 1,1,-1
 100 0 l 1,2,3
 60 10 60 10 50 50 c 1,4,-1
 50 330 l 1,5,-1
 70 350 l 1,6,-1
 130 290 l 1,0,-1
150 80 m 1,7,-1
 390 80 l 1,8,-1
 470 50 l 1,9,10
 460 10 460 10 420 0 c 1,11,-1
 120 0 l 1,12,-1
 150 80 l 1,7,-1
70 370 m 1,13,-1
 50 390 l 1,14,-1
 50 670 l 1,15,16
 60 710 60 710 100 720 c 1,17,-1
 130 640 l 1,18,-1
 130 430 l 1,19,-1
 70 370 l 1,13,-1
EndSplineSet
Validated: 1
EndChar

StartChar: M
Encoding: 77 77 48
Width: 520
Flags: W
LayerCount: 2
Fore
SplineSet
300 390 m 1,0,-1
 260 350 l 1,1,-1
 220 390 l 1,2,-1
 220 620 l 1,3,-1
 300 620 l 1,4,-1
 300 390 l 1,0,-1
450 350 m 1,5,-1
 470 330 l 1,6,-1
 470 50 l 1,7,8
 460 10 460 10 420 0 c 1,9,-1
 390 80 l 1,10,-1
 390 290 l 1,11,-1
 450 350 l 1,5,-1
370 640 m 1,12,-1
 131 640 l 1,13,-1
 51 670 l 1,14,15
 61 710 61 710 101 720 c 1,16,-1
 400 720 l 1,17,-1
 370 640 l 1,12,-1
130 620 m 1,18,-1
 130 430 l 1,19,-1
 70 370 l 1,20,-1
 50 390 l 1,21,-1
 50 650 l 1,22,-1
 130 620 l 1,18,-1
390 430 m 1,23,-1
 390 640 l 1,24,-1
 420 720 l 1,25,26
 460 710 460 710 470 670 c 1,27,-1
 470 390 l 1,28,-1
 450 370 l 1,29,-1
 390 430 l 1,23,-1
130 290 m 1,30,-1
 130 80 l 1,31,-1
 100 0 l 1,32,33
 60 10 60 10 50 50 c 1,34,-1
 50 330 l 1,35,-1
 70 350 l 1,36,-1
 130 290 l 1,30,-1
EndSplineSet
Validated: 1
EndChar

StartChar: N
Encoding: 78 78 49
Width: 520
Flags: W
LayerCount: 2
Fore
SplineSet
130 290 m 1,0,-1
 130 80 l 1,1,-1
 100 0 l 1,2,3
 60 10 60 10 50 50 c 1,4,-1
 50 330 l 1,5,-1
 70 350 l 1,6,-1
 130 290 l 1,0,-1
370 420 m 1,7,-1
 300 420 l 1,8,-1
 150 570 l 1,9,-1
 150 630 l 1,10,-1
 210 630 l 1,11,-1
 370 470 l 1,12,-1
 370 420 l 1,7,-1
450 350 m 1,13,-1
 470 330 l 1,14,-1
 470 50 l 1,15,16
 460 10 460 10 420 0 c 1,17,-1
 390 80 l 1,18,-1
 390 290 l 1,19,-1
 450 350 l 1,13,-1
390 420 m 1,20,-1
 390 630 l 1,21,-1
 420 710 l 1,22,23
 460 700 460 700 470 660 c 1,24,-1
 470 380 l 1,25,-1
 450 360 l 1,26,-1
 390 420 l 1,20,-1
70 360 m 1,27,-1
 50 380 l 1,28,-1
 50 660 l 1,29,30
 60 700 60 700 100 710 c 1,31,-1
 130 630 l 1,32,-1
 130 420 l 1,33,-1
 70 360 l 1,27,-1
EndSplineSet
Validated: 1
EndChar

StartChar: O
Encoding: 79 79 50
Width: 520
Flags: W
LayerCount: 2
Fore
SplineSet
370 640 m 1,0,-1
 150 640 l 1,1,-1
 110 680 l 1,2,-1
 150 720 l 1,3,-1
 370 720 l 1,4,-1
 410 680 l 1,5,-1
 370 640 l 1,0,-1
390 430 m 1,6,-1
 390 640 l 1,7,-1
 420 670 l 1,8,-1
 470 620 l 1,9,-1
 470 390 l 1,10,-1
 450 370 l 1,11,-1
 390 430 l 1,6,-1
450 350 m 1,12,-1
 470 330 l 1,13,-1
 470 100 l 1,14,-1
 420 50 l 1,15,-1
 390 80 l 1,16,-1
 390 290 l 1,17,-1
 450 350 l 1,12,-1
70 370 m 1,18,-1
 50 390 l 1,19,-1
 50 620 l 1,20,-1
 100 670 l 1,21,-1
 130 640 l 1,22,-1
 130 430 l 1,23,-1
 70 370 l 1,18,-1
410 40 m 1,24,-1
 370 0 l 1,25,-1
 150 0 l 1,26,-1
 110 40 l 1,27,-1
 150 80 l 1,28,-1
 370 80 l 1,29,-1
 410 40 l 1,24,-1
130 290 m 1,30,-1
 130 80 l 1,31,-1
 100 50 l 1,32,-1
 50 100 l 1,33,-1
 50 330 l 1,34,-1
 70 350 l 1,35,-1
 130 290 l 1,30,-1
EndSplineSet
Validated: 1
EndChar

StartChar: P
Encoding: 80 80 51
Width: 520
Flags: W
LayerCount: 2
Fore
SplineSet
390 400 m 1,0,-1
 430 360 l 1,1,-1
 390 320 l 1,2,-1
 130 320 l 1,3,-1
 90 360 l 1,4,-1
 130 400 l 1,5,-1
 390 400 l 1,0,-1
370 640 m 1,6,-1
 130 640 l 1,7,-1
 50 670 l 1,8,-1
 50 720 l 1,9,-1
 370 720 l 1,10,-1
 410 680 l 1,11,-1
 370 640 l 1,6,-1
130 620 m 1,12,-1
 130 430 l 1,13,-1
 70 370 l 1,14,-1
 50 390 l 1,15,-1
 50 650 l 1,16,-1
 130 620 l 1,12,-1
390 430 m 1,17,-1
 390 640 l 1,18,-1
 420 670 l 1,19,-1
 470 620 l 1,20,-1
 470 390 l 1,21,-1
 450 370 l 1,22,-1
 390 430 l 1,17,-1
130 290 m 1,23,-1
 130 80 l 1,24,-1
 100 0 l 1,25,26
 60 10 60 10 50 50 c 1,27,-1
 50 330 l 1,28,-1
 70 350 l 1,29,-1
 130 290 l 1,23,-1
EndSplineSet
Validated: 1
EndChar

StartChar: Q
Encoding: 81 81 52
Width: 530
Flags: W
LayerCount: 2
Fore
SplineSet
450 350 m 1,0,-1
 470 330 l 1,1,-1
 470 90 l 1,2,-1
 390 170 l 1,3,-1
 390 290 l 1,4,-1
 450 350 l 1,0,-1
380 0 m 1,5,-1
 100 0 l 1,6,7
 60 10 60 10 50 50 c 1,8,-1
 130 80 l 1,9,-1
 300 80 l 1,10,-1
 380 0 l 1,5,-1
50 70 m 1,11,-1
 50 330 l 1,12,-1
 70 350 l 1,13,-1
 130 290 l 1,14,-1
 130 100 l 1,15,-1
 50 70 l 1,11,-1
370 640 m 1,16,-1
 131 640 l 1,17,-1
 51 670 l 1,18,19
 61 710 61 710 101 720 c 1,20,-1
 400 720 l 1,21,-1
 370 640 l 1,16,-1
130 620 m 1,22,-1
 130 430 l 1,23,-1
 70 370 l 1,24,-1
 50 390 l 1,25,-1
 50 650 l 1,26,-1
 130 620 l 1,22,-1
390 430 m 1,27,-1
 390 640 l 1,28,-1
 420 720 l 1,29,30
 460 710 460 710 470 670 c 1,31,-1
 470 390 l 1,32,-1
 450 370 l 1,33,-1
 390 430 l 1,27,-1
290 180 m 1,34,-1
 350 180 l 1,35,-1
 480 50 l 1,36,-1
 480 -10 l 1,37,-1
 420 -10 l 1,38,-1
 290 120 l 1,39,-1
 290 180 l 1,34,-1
EndSplineSet
Validated: 1
EndChar

StartChar: R
Encoding: 82 82 53
Width: 520
Flags: W
LayerCount: 2
Fore
SplineSet
390 400 m 1,0,-1
 430 360 l 1,1,-1
 390 320 l 1,2,-1
 130 320 l 1,3,-1
 90 360 l 1,4,-1
 130 400 l 1,5,-1
 390 400 l 1,0,-1
150 300 m 1,6,-1
 210 300 l 1,7,-1
 470 40 l 1,8,9
 450 0 450 0 390 0 c 1,10,-1
 150 240 l 1,11,-1
 150 300 l 1,6,-1
130 290 m 1,12,-1
 130 80 l 1,13,-1
 100 0 l 1,14,15
 60 10 60 10 50 50 c 1,16,-1
 50 330 l 1,17,-1
 70 350 l 1,18,-1
 130 290 l 1,12,-1
370 640 m 1,19,-1
 131 640 l 1,20,-1
 51 670 l 1,21,22
 61 710 61 710 101 720 c 1,23,-1
 400 720 l 1,24,-1
 370 640 l 1,19,-1
390 430 m 1,25,-1
 390 640 l 1,26,-1
 420 720 l 1,27,28
 460 710 460 710 470 670 c 1,29,-1
 470 390 l 1,30,-1
 450 370 l 1,31,-1
 390 430 l 1,25,-1
130 620 m 1,32,-1
 130 430 l 1,33,-1
 70 370 l 1,34,-1
 50 390 l 1,35,-1
 50 650 l 1,36,-1
 130 620 l 1,32,-1
EndSplineSet
Validated: 1
EndChar

StartChar: S
Encoding: 83 83 54
Width: 520
Flags: W
LayerCount: 2
Fore
SplineSet
390 400 m 1,0,-1
 430 360 l 1,1,-1
 390 320 l 1,2,-1
 130 320 l 1,3,-1
 90 360 l 1,4,-1
 130 400 l 1,5,-1
 390 400 l 1,0,-1
450 350 m 1,6,-1
 470 330 l 1,7,-1
 470 50 l 1,8,9
 460 10 460 10 420 0 c 1,10,-1
 390 80 l 1,11,-1
 390 290 l 1,12,-1
 450 350 l 1,6,-1
400 0 m 1,13,-1
 100 0 l 1,14,15
 60 10 60 10 50 50 c 1,16,-1
 130 80 l 1,17,-1
 370 80 l 1,18,-1
 400 0 l 1,13,-1
130 620 m 1,19,-1
 130 430 l 1,20,-1
 70 370 l 1,21,-1
 50 390 l 1,22,-1
 50 650 l 1,23,-1
 130 620 l 1,19,-1
131 640 m 1,24,-1
 51 670 l 1,25,26
 61 710 61 710 101 720 c 1,27,-1
 420 720 l 1,28,29
 460 710 460 710 470 670 c 1,30,-1
 390 640 l 1,31,-1
 131 640 l 1,24,-1
EndSplineSet
Validated: 1
EndChar

StartChar: T
Encoding: 84 84 55
Width: 519
Flags: W
LayerCount: 2
Fore
SplineSet
259 350 m 1,0,-1
 299 310 l 1,1,-1
 299 50 l 1,2,3
 289 10 289 10 249 0 c 1,4,-1
 219 80 l 1,5,-1
 219 310 l 1,6,-1
 259 350 l 1,0,-1
219 410 m 1,7,-1
 219 620 l 1,8,-1
 299 620 l 1,9,-1
 299 410 l 1,10,-1
 259 370 l 1,11,-1
 219 410 l 1,7,-1
130 640 m 1,12,-1
 50 670 l 1,13,14
 60 710 60 710 100 720 c 1,15,-1
 419 720 l 1,16,17
 459 710 459 710 469 670 c 1,18,-1
 389 640 l 1,19,-1
 130 640 l 1,12,-1
EndSplineSet
Validated: 1
EndChar

StartChar: U
Encoding: 85 85 56
Width: 520
Flags: W
LayerCount: 2
Fore
SplineSet
450 350 m 1,0,-1
 470 330 l 1,1,-1
 470 50 l 1,2,3
 460 10 460 10 420 0 c 1,4,-1
 390 80 l 1,5,-1
 390 290 l 1,6,-1
 450 350 l 1,0,-1
400 0 m 1,7,-1
 100 0 l 1,8,9
 60 10 60 10 50 50 c 1,10,-1
 130 80 l 1,11,-1
 370 80 l 1,12,-1
 400 0 l 1,7,-1
50 70 m 1,13,-1
 50 330 l 1,14,-1
 70 350 l 1,15,-1
 130 290 l 1,16,-1
 130 100 l 1,17,-1
 50 70 l 1,13,-1
390 430 m 1,18,-1
 390 640 l 1,19,-1
 420 720 l 1,20,21
 460 710 460 710 470 670 c 1,22,-1
 470 390 l 1,23,-1
 450 370 l 1,24,-1
 390 430 l 1,18,-1
70 360 m 1,25,-1
 50 380 l 1,26,-1
 50 660 l 1,27,28
 60 700 60 700 100 710 c 1,29,-1
 130 630 l 1,30,-1
 130 420 l 1,31,-1
 70 360 l 1,25,-1
EndSplineSet
Validated: 1
EndChar

StartChar: V
Encoding: 86 86 57
Width: 520
Flags: W
LayerCount: 2
Fore
SplineSet
70 360 m 1,0,-1
 50 380 l 1,1,-1
 50 660 l 1,2,3
 60 700 60 700 100 710 c 1,4,-1
 130 630 l 1,5,-1
 130 420 l 1,6,-1
 70 360 l 1,0,-1
390 420 m 1,7,-1
 390 630 l 1,8,-1
 420 710 l 1,9,10
 460 700 460 700 470 660 c 1,11,-1
 470 380 l 1,12,-1
 450 360 l 1,13,-1
 390 420 l 1,7,-1
250 120 m 1,14,-1
 250 0 l 1,15,-1
 50 260 l 1,16,-1
 50 320 l 1,17,-1
 70 340 l 1,18,-1
 130 280 l 1,19,-1
 250 120 l 1,14,-1
390 280 m 1,20,-1
 450 340 l 1,21,-1
 470 320 l 1,22,-1
 470 260 l 1,23,-1
 270 0 l 1,24,-1
 270 120 l 1,25,-1
 390 280 l 1,20,-1
EndSplineSet
Validated: 1
EndChar

StartChar: W
Encoding: 87 87 58
Width: 520
Flags: W
LayerCount: 2
Fore
SplineSet
300 100 m 1,0,-1
 220 100 l 1,1,-1
 220 330 l 1,2,-1
 260 370 l 1,3,-1
 300 330 l 1,4,-1
 300 100 l 1,0,-1
390 430 m 1,5,-1
 390 640 l 1,6,-1
 420 720 l 1,7,8
 460 710 460 710 470 670 c 1,9,-1
 470 390 l 1,10,-1
 450 370 l 1,11,-1
 390 430 l 1,5,-1
400 0 m 1,12,-1
 101 0 l 1,13,14
 61 10 61 10 51 50 c 1,15,-1
 131 80 l 1,16,-1
 370 80 l 1,17,-1
 400 0 l 1,12,-1
50 70 m 1,18,-1
 50 330 l 1,19,-1
 70 350 l 1,20,-1
 130 290 l 1,21,-1
 130 100 l 1,22,-1
 50 70 l 1,18,-1
450 350 m 1,23,-1
 470 330 l 1,24,-1
 470 50 l 1,25,26
 460 10 460 10 420 0 c 1,27,-1
 390 80 l 1,28,-1
 390 290 l 1,29,-1
 450 350 l 1,23,-1
70 370 m 1,30,-1
 50 390 l 1,31,-1
 50 670 l 1,32,33
 60 710 60 710 100 720 c 1,34,-1
 130 640 l 1,35,-1
 130 430 l 1,36,-1
 70 370 l 1,30,-1
EndSplineSet
Validated: 1
EndChar

StartChar: X
Encoding: 88 88 59
Width: 520
Flags: W
LayerCount: 2
Fore
SplineSet
270 350 m 1,0,-1
 315 350 l 1,1,-1
 469 40 l 1,2,3
 449 0 449 0 389 0 c 1,4,-1
 270 242 l 1,5,-1
 270 350 l 1,0,-1
271 478 m 1,6,-1
 390 720 l 1,7,8
 450 720 450 720 470 680 c 1,9,-1
 316 370 l 1,10,-1
 271 370 l 1,11,-1
 271 478 l 1,6,-1
249 242 m 1,12,-1
 130 0 l 1,13,14
 70 0 70 0 50 40 c 1,15,-1
 204 350 l 1,16,-1
 249 350 l 1,17,-1
 249 242 l 1,12,-1
250 370 m 1,18,-1
 205 370 l 1,19,-1
 51 680 l 1,20,21
 71 720 71 720 131 720 c 1,22,-1
 250 477 l 1,23,-1
 250 370 l 1,18,-1
EndSplineSet
Validated: 1
EndChar

StartChar: Y
Encoding: 89 89 60
Width: 520
Flags: W
LayerCount: 2
Fore
SplineSet
390 400 m 1,0,-1
 430 360 l 1,1,-1
 390 320 l 1,2,-1
 130 320 l 1,3,-1
 90 360 l 1,4,-1
 130 400 l 1,5,-1
 390 400 l 1,0,-1
450 350 m 1,6,-1
 470 330 l 1,7,-1
 470 50 l 1,8,9
 460 10 460 10 420 0 c 1,10,-1
 390 80 l 1,11,-1
 390 290 l 1,12,-1
 450 350 l 1,6,-1
400 0 m 1,13,-1
 100 0 l 1,14,15
 60 10 60 10 50 50 c 1,16,-1
 130 80 l 1,17,-1
 370 80 l 1,18,-1
 400 0 l 1,13,-1
130 650 m 1,19,-1
 130 430 l 1,20,-1
 70 370 l 1,21,-1
 50 390 l 1,22,-1
 50 680 l 1,23,-1
 130 650 l 1,19,-1
390 430 m 1,24,-1
 390 640 l 1,25,-1
 420 720 l 1,26,27
 460 710 460 710 470 670 c 1,28,-1
 470 390 l 1,29,-1
 450 370 l 1,30,-1
 390 430 l 1,24,-1
EndSplineSet
Validated: 1
EndChar

StartChar: Z
Encoding: 90 90 61
Width: 520
Flags: W
LayerCount: 2
Fore
SplineSet
430 0 m 1,0,-1
 150 0 l 1,1,-1
 190 80 l 1,2,-1
 400 80 l 1,3,-1
 430 0 l 1,0,-1
330 640 m 1,4,-1
 131 640 l 1,5,-1
 51 670 l 1,6,7
 61 710 61 710 101 720 c 1,8,-1
 370 720 l 1,9,-1
 330 640 l 1,4,-1
260 430 m 1,10,-1
 390 720 l 1,11,12
 450 720 450 720 470 680 c 1,13,-1
 320 370 l 1,14,-1
 260 370 l 1,15,-1
 260 430 l 1,10,-1
270 290 m 1,16,-1
 130 0 l 1,17,18
 70 0 70 0 50 40 c 1,19,-1
 210 350 l 1,20,-1
 270 350 l 1,21,-1
 270 290 l 1,16,-1
EndSplineSet
Validated: 1
EndChar

StartChar: bracketleft
Encoding: 91 91 62
Width: 310
Flags: W
LayerCount: 2
Fore
SplineSet
50 70 m 1,0,-1
 50 330 l 1,1,-1
 70 350 l 1,2,-1
 130 290 l 1,3,-1
 130 100 l 1,4,-1
 50 70 l 1,0,-1
200 640 m 1,5,-1
 131 640 l 1,6,-1
 51 670 l 1,7,8
 61 710 61 710 101 720 c 1,9,-1
 240 720 l 1,10,-1
 260 700 l 1,11,-1
 200 640 l 1,5,-1
130 620 m 1,12,-1
 130 430 l 1,13,-1
 70 370 l 1,14,-1
 50 390 l 1,15,-1
 50 650 l 1,16,-1
 130 620 l 1,12,-1
260 20 m 1,17,-1
 240 0 l 1,18,-1
 101 0 l 1,19,20
 61 10 61 10 51 50 c 1,21,-1
 131 80 l 1,22,-1
 200 80 l 1,23,-1
 260 20 l 1,17,-1
EndSplineSet
Validated: 1
EndChar

StartChar: backslash
Encoding: 92 92 63
Width: 518
Flags: W
LayerCount: 2
Fore
SplineSet
269 350 m 1,0,-1
 314 350 l 1,1,-1
 468 40 l 1,2,3
 448 0 448 0 388 0 c 1,4,-1
 269 242 l 1,5,-1
 269 350 l 1,0,-1
249 370 m 1,6,-1
 204 370 l 1,7,-1
 50 680 l 1,8,9
 70 720 70 720 130 720 c 1,10,-1
 249 477 l 1,11,-1
 249 370 l 1,6,-1
EndSplineSet
Validated: 1
EndChar

StartChar: bracketright
Encoding: 93 93 64
Width: 310
Flags: W
LayerCount: 2
Fore
SplineSet
240 350 m 1,0,-1
 260 330 l 1,1,-1
 260 50 l 1,2,3
 250 10 250 10 210 0 c 1,4,-1
 180 80 l 1,5,-1
 180 290 l 1,6,-1
 240 350 l 1,0,-1
160 640 m 1,7,-1
 110 640 l 1,8,-1
 50 700 l 1,9,-1
 70 720 l 1,10,-1
 190 720 l 1,11,-1
 160 640 l 1,7,-1
180 430 m 1,12,-1
 180 640 l 1,13,-1
 210 720 l 1,14,15
 250 710 250 710 260 670 c 1,16,-1
 260 390 l 1,17,-1
 240 370 l 1,18,-1
 180 430 l 1,12,-1
190 0 m 1,19,-1
 70 0 l 1,20,-1
 50 20 l 1,21,-1
 110 80 l 1,22,-1
 160 80 l 1,23,-1
 190 0 l 1,19,-1
EndSplineSet
Validated: 1
EndChar

StartChar: asciicircum
Encoding: 94 94 65
Width: 519
Flags: W
LayerCount: 2
Fore
SplineSet
269 610 m 1,0,-1
 269 720 l 1,1,-1
 469 520 l 1,2,-1
 469 480 l 1,3,-1
 430 450 l 1,4,-1
 269 610 l 1,0,-1
89 450 m 1,5,-1
 50 480 l 1,6,-1
 50 520 l 1,7,-1
 250 720 l 1,8,-1
 249 610 l 1,9,-1
 89 450 l 1,5,-1
EndSplineSet
Validated: 1
EndChar

StartChar: underscore
Encoding: 95 95 66
Width: 519
Flags: W
LayerCount: 2
Fore
SplineSet
389 80 m 1,0,-1
 469 50 l 1,1,2
 459 10 459 10 419 0 c 1,3,-1
 100 0 l 1,4,5
 60 10 60 10 50 50 c 1,6,-1
 130 80 l 1,7,-1
 389 80 l 1,0,-1
EndSplineSet
Validated: 1
EndChar

StartChar: grave
Encoding: 96 96 67
Width: 280
Flags: W
LayerCount: 2
Fore
SplineSet
230 610 m 1,0,-1
 230 570 l 1,1,-1
 190 560 l 1,2,-1
 50 700 l 1,3,-1
 60 740 l 1,4,-1
 100 740 l 1,5,-1
 230 610 l 1,0,-1
EndSplineSet
Validated: 1
EndChar

StartChar: a
Encoding: 97 97 68
Width: 520
Flags: W
LayerCount: 2
Fore
SplineSet
370 640 m 1,0,-1
 131 640 l 1,1,-1
 51 670 l 1,2,3
 61 710 61 710 101 720 c 1,4,-1
 400 720 l 1,5,-1
 370 640 l 1,0,-1
EndSplineSet
EndChar

StartChar: b
Encoding: 98 98 69
Width: 520
Flags: W
LayerCount: 2
Fore
SplineSet
390 430 m 1,0,-1
 390 640 l 1,1,-1
 420 720 l 1,2,3
 460 710 460 710 470 670 c 1,4,-1
 470 390 l 1,5,-1
 450 370 l 1,6,-1
 390 430 l 1,0,-1
EndSplineSet
EndChar

StartChar: c
Encoding: 99 99 70
Width: 520
Flags: W
LayerCount: 2
Fore
SplineSet
450 350 m 1,0,-1
 470 330 l 1,1,-1
 470 50 l 1,2,3
 460 10 460 10 420 0 c 1,4,-1
 390 80 l 1,5,-1
 390 290 l 1,6,-1
 450 350 l 1,0,-1
EndSplineSet
EndChar

StartChar: d
Encoding: 100 100 71
Width: 520
Flags: W
LayerCount: 2
Fore
SplineSet
400 0 m 1,0,-1
 100 0 l 1,1,2
 60 10 60 10 50 50 c 1,3,-1
 130 80 l 1,4,-1
 370 80 l 1,5,-1
 400 0 l 1,0,-1
EndSplineSet
EndChar

StartChar: e
Encoding: 101 101 72
Width: 520
Flags: W
LayerCount: 2
Fore
SplineSet
50 70 m 1,0,-1
 50 330 l 1,1,-1
 70 350 l 1,2,-1
 130 290 l 1,3,-1
 130 100 l 1,4,-1
 50 70 l 1,0,-1
EndSplineSet
EndChar

StartChar: f
Encoding: 102 102 73
Width: 520
Flags: W
LayerCount: 2
Fore
SplineSet
130 620 m 1,0,-1
 130 430 l 1,1,-1
 70 370 l 1,2,-1
 50 390 l 1,3,-1
 50 650 l 1,4,-1
 130 620 l 1,0,-1
EndSplineSet
EndChar

StartChar: g
Encoding: 103 103 74
Width: 520
Flags: W
LayerCount: 2
Fore
SplineSet
390 400 m 1,0,-1
 430 360 l 1,1,-1
 390 320 l 1,2,-1
 300 320 l 1,3,-1
 260 360 l 1,4,-1
 300 400 l 1,5,-1
 390 400 l 1,0,-1
450 350 m 1,6,-1
 470 330 l 1,7,-1
 470 50 l 1,8,9
 460 10 460 10 420 0 c 1,10,-1
 390 80 l 1,11,-1
 390 290 l 1,12,-1
 450 350 l 1,6,-1
400 0 m 1,13,-1
 100 0 l 1,14,15
 60 10 60 10 50 50 c 1,16,-1
 130 80 l 1,17,-1
 370 80 l 1,18,-1
 400 0 l 1,13,-1
50 70 m 1,19,-1
 50 330 l 1,20,-1
 70 350 l 1,21,-1
 130 290 l 1,22,-1
 130 100 l 1,23,-1
 50 70 l 1,19,-1
400 640 m 1,24,-1
 131 640 l 1,25,-1
 51 670 l 1,26,27
 61 710 61 710 101 720 c 1,28,-1
 430 720 l 1,29,-1
 400 640 l 1,24,-1
130 620 m 1,30,-1
 130 430 l 1,31,-1
 70 370 l 1,32,-1
 50 390 l 1,33,-1
 50 650 l 1,34,-1
 130 620 l 1,30,-1
EndSplineSet
Validated: 1
EndChar

StartChar: h
Encoding: 104 104 75
Width: 520
Flags: W
LayerCount: 2
Fore
SplineSet
390 400 m 1,0,-1
 430 360 l 1,1,-1
 390 320 l 1,2,-1
 130 320 l 1,3,-1
 90 360 l 1,4,-1
 130 400 l 1,5,-1
 390 400 l 1,0,-1
450 350 m 1,6,-1
 470 330 l 1,7,-1
 470 50 l 1,8,9
 460 10 460 10 420 0 c 1,10,-1
 390 80 l 1,11,-1
 390 290 l 1,12,-1
 450 350 l 1,6,-1
390 430 m 1,13,-1
 390 640 l 1,14,-1
 420 720 l 1,15,16
 460 710 460 710 470 670 c 1,17,-1
 470 390 l 1,18,-1
 450 370 l 1,19,-1
 390 430 l 1,13,-1
130 290 m 1,20,-1
 130 80 l 1,21,-1
 100 0 l 1,22,23
 60 10 60 10 50 50 c 1,24,-1
 50 330 l 1,25,-1
 70 350 l 1,26,-1
 130 290 l 1,20,-1
70 360 m 1,27,-1
 50 380 l 1,28,-1
 50 660 l 1,29,30
 60 700 60 700 100 710 c 1,31,-1
 130 630 l 1,32,-1
 130 420 l 1,33,-1
 70 360 l 1,27,-1
EndSplineSet
Validated: 1
EndChar

StartChar: i
Encoding: 105 105 76
Width: 180
Flags: W
LayerCount: 2
Fore
SplineSet
50 430 m 1,0,-1
 50 640 l 1,1,-1
 80 720 l 1,2,3
 120 710 120 710 130 670 c 1,4,-1
 130 390 l 1,5,-1
 110 370 l 1,6,-1
 50 430 l 1,0,-1
110 360 m 1,7,-1
 130 340 l 1,8,-1
 130 60 l 1,9,10
 120 20 120 20 80 10 c 1,11,-1
 50 90 l 1,12,-1
 50 300 l 1,13,-1
 110 360 l 1,7,-1
EndSplineSet
Validated: 1
EndChar

StartChar: j
Encoding: 106 106 77
Width: 520
Flags: W
LayerCount: 2
Fore
SplineSet
450 350 m 1,0,-1
 470 330 l 1,1,-1
 470 50 l 1,2,3
 460 10 460 10 420 0 c 1,4,-1
 390 80 l 1,5,-1
 390 290 l 1,6,-1
 450 350 l 1,0,-1
400 0 m 1,7,-1
 100 0 l 1,8,9
 60 10 60 10 50 50 c 1,10,-1
 130 80 l 1,11,-1
 370 80 l 1,12,-1
 400 0 l 1,7,-1
50 70 m 1,13,-1
 50 330 l 1,14,-1
 70 350 l 1,15,-1
 130 290 l 1,16,-1
 130 100 l 1,17,-1
 50 70 l 1,13,-1
390 430 m 1,18,-1
 390 640 l 1,19,-1
 420 720 l 1,20,21
 460 710 460 710 470 670 c 1,22,-1
 470 390 l 1,23,-1
 450 370 l 1,24,-1
 390 430 l 1,18,-1
EndSplineSet
Validated: 1
EndChar

StartChar: k
Encoding: 107 107 78
Width: 520
Flags: W
LayerCount: 2
Fore
SplineSet
390 400 m 1,0,-1
 430 360 l 1,1,-1
 390 320 l 1,2,-1
 130 320 l 1,3,-1
 90 360 l 1,4,-1
 130 400 l 1,5,-1
 390 400 l 1,0,-1
450 350 m 1,6,-1
 470 330 l 1,7,-1
 470 50 l 1,8,9
 460 10 460 10 420 0 c 1,10,-1
 390 80 l 1,11,-1
 390 290 l 1,12,-1
 450 350 l 1,6,-1
150 480 m 1,13,-1
 390 720 l 1,14,15
 450 720 450 720 470 680 c 1,16,-1
 210 420 l 1,17,-1
 150 420 l 1,18,-1
 150 480 l 1,13,-1
130 290 m 1,19,-1
 130 80 l 1,20,-1
 100 0 l 1,21,22
 60 10 60 10 50 50 c 1,23,-1
 50 330 l 1,24,-1
 70 350 l 1,25,-1
 130 290 l 1,19,-1
70 370 m 1,26,-1
 50 390 l 1,27,-1
 50 670 l 1,28,29
 60 710 60 710 100 720 c 1,30,-1
 130 640 l 1,31,-1
 130 430 l 1,32,-1
 70 370 l 1,26,-1
EndSplineSet
Validated: 1
EndChar

StartChar: l
Encoding: 108 108 79
Width: 520
Flags: W
LayerCount: 2
Fore
SplineSet
130 290 m 1,0,-1
 130 80 l 1,1,-1
 100 0 l 1,2,3
 60 10 60 10 50 50 c 1,4,-1
 50 330 l 1,5,-1
 70 350 l 1,6,-1
 130 290 l 1,0,-1
150 80 m 1,7,-1
 390 80 l 1,8,-1
 470 50 l 1,9,10
 460 10 460 10 420 0 c 1,11,-1
 120 0 l 1,12,-1
 150 80 l 1,7,-1
70 370 m 1,13,-1
 50 390 l 1,14,-1
 50 670 l 1,15,16
 60 710 60 710 100 720 c 1,17,-1
 130 640 l 1,18,-1
 130 430 l 1,19,-1
 70 370 l 1,13,-1
EndSplineSet
Validated: 1
EndChar

StartChar: m
Encoding: 109 109 80
Width: 520
Flags: W
LayerCount: 2
Fore
SplineSet
300 390 m 1,0,-1
 260 350 l 1,1,-1
 220 390 l 1,2,-1
 220 620 l 1,3,-1
 300 620 l 1,4,-1
 300 390 l 1,0,-1
450 350 m 1,5,-1
 470 330 l 1,6,-1
 470 50 l 1,7,8
 460 10 460 10 420 0 c 1,9,-1
 390 80 l 1,10,-1
 390 290 l 1,11,-1
 450 350 l 1,5,-1
370 640 m 1,12,-1
 131 640 l 1,13,-1
 51 670 l 1,14,15
 61 710 61 710 101 720 c 1,16,-1
 400 720 l 1,17,-1
 370 640 l 1,12,-1
130 620 m 1,18,-1
 130 430 l 1,19,-1
 70 370 l 1,20,-1
 50 390 l 1,21,-1
 50 650 l 1,22,-1
 130 620 l 1,18,-1
390 430 m 1,23,-1
 390 640 l 1,24,-1
 420 720 l 1,25,26
 460 710 460 710 470 670 c 1,27,-1
 470 390 l 1,28,-1
 450 370 l 1,29,-1
 390 430 l 1,23,-1
130 290 m 1,30,-1
 130 80 l 1,31,-1
 100 0 l 1,32,33
 60 10 60 10 50 50 c 1,34,-1
 50 330 l 1,35,-1
 70 350 l 1,36,-1
 130 290 l 1,30,-1
EndSplineSet
Validated: 1
EndChar

StartChar: n
Encoding: 110 110 81
Width: 520
Flags: W
LayerCount: 2
Fore
SplineSet
130 290 m 1,0,-1
 130 80 l 1,1,-1
 100 0 l 1,2,3
 60 10 60 10 50 50 c 1,4,-1
 50 330 l 1,5,-1
 70 350 l 1,6,-1
 130 290 l 1,0,-1
370 420 m 1,7,-1
 300 420 l 1,8,-1
 150 570 l 1,9,-1
 150 630 l 1,10,-1
 210 630 l 1,11,-1
 370 470 l 1,12,-1
 370 420 l 1,7,-1
450 350 m 1,13,-1
 470 330 l 1,14,-1
 470 50 l 1,15,16
 460 10 460 10 420 0 c 1,17,-1
 390 80 l 1,18,-1
 390 290 l 1,19,-1
 450 350 l 1,13,-1
390 420 m 1,20,-1
 390 630 l 1,21,-1
 420 710 l 1,22,23
 460 700 460 700 470 660 c 1,24,-1
 470 380 l 1,25,-1
 450 360 l 1,26,-1
 390 420 l 1,20,-1
70 360 m 1,27,-1
 50 380 l 1,28,-1
 50 660 l 1,29,30
 60 700 60 700 100 710 c 1,31,-1
 130 630 l 1,32,-1
 130 420 l 1,33,-1
 70 360 l 1,27,-1
EndSplineSet
Validated: 1
EndChar

StartChar: o
Encoding: 111 111 82
Width: 520
Flags: W
LayerCount: 2
Fore
SplineSet
370 640 m 1,0,-1
 150 640 l 1,1,-1
 110 680 l 1,2,-1
 150 720 l 1,3,-1
 370 720 l 1,4,-1
 410 680 l 1,5,-1
 370 640 l 1,0,-1
390 430 m 1,6,-1
 390 640 l 1,7,-1
 420 670 l 1,8,-1
 470 620 l 1,9,-1
 470 390 l 1,10,-1
 450 370 l 1,11,-1
 390 430 l 1,6,-1
450 350 m 1,12,-1
 470 330 l 1,13,-1
 470 100 l 1,14,-1
 420 50 l 1,15,-1
 390 80 l 1,16,-1
 390 290 l 1,17,-1
 450 350 l 1,12,-1
70 370 m 1,18,-1
 50 390 l 1,19,-1
 50 620 l 1,20,-1
 100 670 l 1,21,-1
 130 640 l 1,22,-1
 130 430 l 1,23,-1
 70 370 l 1,18,-1
410 40 m 1,24,-1
 370 0 l 1,25,-1
 150 0 l 1,26,-1
 110 40 l 1,27,-1
 150 80 l 1,28,-1
 370 80 l 1,29,-1
 410 40 l 1,24,-1
130 290 m 1,30,-1
 130 80 l 1,31,-1
 100 50 l 1,32,-1
 50 100 l 1,33,-1
 50 330 l 1,34,-1
 70 350 l 1,35,-1
 130 290 l 1,30,-1
EndSplineSet
Validated: 1
EndChar

StartChar: p
Encoding: 112 112 83
Width: 520
Flags: W
LayerCount: 2
Fore
SplineSet
390 400 m 1,0,-1
 430 360 l 1,1,-1
 390 320 l 1,2,-1
 130 320 l 1,3,-1
 90 360 l 1,4,-1
 130 400 l 1,5,-1
 390 400 l 1,0,-1
370 640 m 1,6,-1
 130 640 l 1,7,-1
 50 670 l 1,8,-1
 50 720 l 1,9,-1
 370 720 l 1,10,-1
 410 680 l 1,11,-1
 370 640 l 1,6,-1
130 620 m 1,12,-1
 130 430 l 1,13,-1
 70 370 l 1,14,-1
 50 390 l 1,15,-1
 50 650 l 1,16,-1
 130 620 l 1,12,-1
390 430 m 1,17,-1
 390 640 l 1,18,-1
 420 670 l 1,19,-1
 470 620 l 1,20,-1
 470 390 l 1,21,-1
 450 370 l 1,22,-1
 390 430 l 1,17,-1
130 290 m 1,23,-1
 130 80 l 1,24,-1
 100 0 l 1,25,26
 60 10 60 10 50 50 c 1,27,-1
 50 330 l 1,28,-1
 70 350 l 1,29,-1
 130 290 l 1,23,-1
EndSplineSet
Validated: 1
EndChar

StartChar: q
Encoding: 113 113 84
Width: 530
Flags: W
LayerCount: 2
Fore
SplineSet
450 350 m 1,0,-1
 470 330 l 1,1,-1
 470 90 l 1,2,-1
 390 170 l 1,3,-1
 390 290 l 1,4,-1
 450 350 l 1,0,-1
380 0 m 1,5,-1
 100 0 l 1,6,7
 60 10 60 10 50 50 c 1,8,-1
 130 80 l 1,9,-1
 300 80 l 1,10,-1
 380 0 l 1,5,-1
50 70 m 1,11,-1
 50 330 l 1,12,-1
 70 350 l 1,13,-1
 130 290 l 1,14,-1
 130 100 l 1,15,-1
 50 70 l 1,11,-1
370 640 m 1,16,-1
 131 640 l 1,17,-1
 51 670 l 1,18,19
 61 710 61 710 101 720 c 1,20,-1
 400 720 l 1,21,-1
 370 640 l 1,16,-1
130 620 m 1,22,-1
 130 430 l 1,23,-1
 70 370 l 1,24,-1
 50 390 l 1,25,-1
 50 650 l 1,26,-1
 130 620 l 1,22,-1
390 430 m 1,27,-1
 390 640 l 1,28,-1
 420 720 l 1,29,30
 460 710 460 710 470 670 c 1,31,-1
 470 390 l 1,32,-1
 450 370 l 1,33,-1
 390 430 l 1,27,-1
290 180 m 1,34,-1
 350 180 l 1,35,-1
 480 50 l 1,36,-1
 480 -10 l 1,37,-1
 420 -10 l 1,38,-1
 290 120 l 1,39,-1
 290 180 l 1,34,-1
EndSplineSet
Validated: 1
EndChar

StartChar: r
Encoding: 114 114 85
Width: 520
Flags: W
LayerCount: 2
Fore
SplineSet
390 400 m 1,0,-1
 430 360 l 1,1,-1
 390 320 l 1,2,-1
 130 320 l 1,3,-1
 90 360 l 1,4,-1
 130 400 l 1,5,-1
 390 400 l 1,0,-1
150 300 m 1,6,-1
 210 300 l 1,7,-1
 470 40 l 1,8,9
 450 0 450 0 390 0 c 1,10,-1
 150 240 l 1,11,-1
 150 300 l 1,6,-1
130 290 m 1,12,-1
 130 80 l 1,13,-1
 100 0 l 1,14,15
 60 10 60 10 50 50 c 1,16,-1
 50 330 l 1,17,-1
 70 350 l 1,18,-1
 130 290 l 1,12,-1
370 640 m 1,19,-1
 131 640 l 1,20,-1
 51 670 l 1,21,22
 61 710 61 710 101 720 c 1,23,-1
 400 720 l 1,24,-1
 370 640 l 1,19,-1
390 430 m 1,25,-1
 390 640 l 1,26,-1
 420 720 l 1,27,28
 460 710 460 710 470 670 c 1,29,-1
 470 390 l 1,30,-1
 450 370 l 1,31,-1
 390 430 l 1,25,-1
130 620 m 1,32,-1
 130 430 l 1,33,-1
 70 370 l 1,34,-1
 50 390 l 1,35,-1
 50 650 l 1,36,-1
 130 620 l 1,32,-1
EndSplineSet
Validated: 1
EndChar

StartChar: s
Encoding: 115 115 86
Width: 520
Flags: W
LayerCount: 2
Fore
SplineSet
390 400 m 1,0,-1
 430 360 l 1,1,-1
 390 320 l 1,2,-1
 130 320 l 1,3,-1
 90 360 l 1,4,-1
 130 400 l 1,5,-1
 390 400 l 1,0,-1
450 350 m 1,6,-1
 470 330 l 1,7,-1
 470 50 l 1,8,9
 460 10 460 10 420 0 c 1,10,-1
 390 80 l 1,11,-1
 390 290 l 1,12,-1
 450 350 l 1,6,-1
400 0 m 1,13,-1
 100 0 l 1,14,15
 60 10 60 10 50 50 c 1,16,-1
 130 80 l 1,17,-1
 370 80 l 1,18,-1
 400 0 l 1,13,-1
130 620 m 1,19,-1
 130 430 l 1,20,-1
 70 370 l 1,21,-1
 50 390 l 1,22,-1
 50 650 l 1,23,-1
 130 620 l 1,19,-1
131 640 m 1,24,-1
 51 670 l 1,25,26
 61 710 61 710 101 720 c 1,27,-1
 420 720 l 1,28,29
 460 710 460 710 470 670 c 1,30,-1
 390 640 l 1,31,-1
 131 640 l 1,24,-1
EndSplineSet
Validated: 1
EndChar

StartChar: t
Encoding: 116 116 87
Width: 519
Flags: W
LayerCount: 2
Fore
SplineSet
259 350 m 1,0,-1
 299 310 l 1,1,-1
 299 50 l 1,2,3
 289 10 289 10 249 0 c 1,4,-1
 219 80 l 1,5,-1
 219 310 l 1,6,-1
 259 350 l 1,0,-1
219 410 m 1,7,-1
 219 620 l 1,8,-1
 299 620 l 1,9,-1
 299 410 l 1,10,-1
 259 370 l 1,11,-1
 219 410 l 1,7,-1
130 640 m 1,12,-1
 50 670 l 1,13,14
 60 710 60 710 100 720 c 1,15,-1
 419 720 l 1,16,17
 459 710 459 710 469 670 c 1,18,-1
 389 640 l 1,19,-1
 130 640 l 1,12,-1
EndSplineSet
Validated: 1
EndChar

StartChar: u
Encoding: 117 117 88
Width: 520
Flags: W
LayerCount: 2
Fore
SplineSet
450 350 m 1,0,-1
 470 330 l 1,1,-1
 470 50 l 1,2,3
 460 10 460 10 420 0 c 1,4,-1
 390 80 l 1,5,-1
 390 290 l 1,6,-1
 450 350 l 1,0,-1
400 0 m 1,7,-1
 100 0 l 1,8,9
 60 10 60 10 50 50 c 1,10,-1
 130 80 l 1,11,-1
 370 80 l 1,12,-1
 400 0 l 1,7,-1
50 70 m 1,13,-1
 50 330 l 1,14,-1
 70 350 l 1,15,-1
 130 290 l 1,16,-1
 130 100 l 1,17,-1
 50 70 l 1,13,-1
390 430 m 1,18,-1
 390 640 l 1,19,-1
 420 720 l 1,20,21
 460 710 460 710 470 670 c 1,22,-1
 470 390 l 1,23,-1
 450 370 l 1,24,-1
 390 430 l 1,18,-1
70 360 m 1,25,-1
 50 380 l 1,26,-1
 50 660 l 1,27,28
 60 700 60 700 100 710 c 1,29,-1
 130 630 l 1,30,-1
 130 420 l 1,31,-1
 70 360 l 1,25,-1
EndSplineSet
Validated: 1
EndChar

StartChar: v
Encoding: 118 118 89
Width: 520
Flags: W
LayerCount: 2
Fore
SplineSet
70 360 m 1,0,-1
 50 380 l 1,1,-1
 50 660 l 1,2,3
 60 700 60 700 100 710 c 1,4,-1
 130 630 l 1,5,-1
 130 420 l 1,6,-1
 70 360 l 1,0,-1
390 420 m 1,7,-1
 390 630 l 1,8,-1
 420 710 l 1,9,10
 460 700 460 700 470 660 c 1,11,-1
 470 380 l 1,12,-1
 450 360 l 1,13,-1
 390 420 l 1,7,-1
250 120 m 1,14,-1
 250 0 l 1,15,-1
 50 260 l 1,16,-1
 50 320 l 1,17,-1
 70 340 l 1,18,-1
 130 280 l 1,19,-1
 250 120 l 1,14,-1
390 280 m 1,20,-1
 450 340 l 1,21,-1
 470 320 l 1,22,-1
 470 260 l 1,23,-1
 270 0 l 1,24,-1
 270 120 l 1,25,-1
 390 280 l 1,20,-1
EndSplineSet
Validated: 1
EndChar

StartChar: w
Encoding: 119 119 90
Width: 520
Flags: W
LayerCount: 2
Fore
SplineSet
300 100 m 1,0,-1
 220 100 l 1,1,-1
 220 330 l 1,2,-1
 260 370 l 1,3,-1
 300 330 l 1,4,-1
 300 100 l 1,0,-1
390 430 m 1,5,-1
 390 640 l 1,6,-1
 420 720 l 1,7,8
 460 710 460 710 470 670 c 1,9,-1
 470 390 l 1,10,-1
 450 370 l 1,11,-1
 390 430 l 1,5,-1
400 0 m 1,12,-1
 101 0 l 1,13,14
 61 10 61 10 51 50 c 1,15,-1
 131 80 l 1,16,-1
 370 80 l 1,17,-1
 400 0 l 1,12,-1
50 70 m 1,18,-1
 50 330 l 1,19,-1
 70 350 l 1,20,-1
 130 290 l 1,21,-1
 130 100 l 1,22,-1
 50 70 l 1,18,-1
450 350 m 1,23,-1
 470 330 l 1,24,-1
 470 50 l 1,25,26
 460 10 460 10 420 0 c 1,27,-1
 390 80 l 1,28,-1
 390 290 l 1,29,-1
 450 350 l 1,23,-1
70 370 m 1,30,-1
 50 390 l 1,31,-1
 50 670 l 1,32,33
 60 710 60 710 100 720 c 1,34,-1
 130 640 l 1,35,-1
 130 430 l 1,36,-1
 70 370 l 1,30,-1
EndSplineSet
Validated: 1
EndChar

StartChar: x
Encoding: 120 120 91
Width: 520
Flags: W
LayerCount: 2
Fore
SplineSet
270 350 m 1,0,-1
 315 350 l 1,1,-1
 469 40 l 1,2,3
 449 0 449 0 389 0 c 1,4,-1
 270 242 l 1,5,-1
 270 350 l 1,0,-1
271 478 m 1,6,-1
 390 720 l 1,7,8
 450 720 450 720 470 680 c 1,9,-1
 316 370 l 1,10,-1
 271 370 l 1,11,-1
 271 478 l 1,6,-1
249 242 m 1,12,-1
 130 0 l 1,13,14
 70 0 70 0 50 40 c 1,15,-1
 204 350 l 1,16,-1
 249 350 l 1,17,-1
 249 242 l 1,12,-1
250 370 m 1,18,-1
 205 370 l 1,19,-1
 51 680 l 1,20,21
 71 720 71 720 131 720 c 1,22,-1
 250 477 l 1,23,-1
 250 370 l 1,18,-1
EndSplineSet
Validated: 1
EndChar

StartChar: y
Encoding: 121 121 92
Width: 520
Flags: W
LayerCount: 2
Fore
SplineSet
390 400 m 1,0,-1
 430 360 l 1,1,-1
 390 320 l 1,2,-1
 130 320 l 1,3,-1
 90 360 l 1,4,-1
 130 400 l 1,5,-1
 390 400 l 1,0,-1
450 350 m 1,6,-1
 470 330 l 1,7,-1
 470 50 l 1,8,9
 460 10 460 10 420 0 c 1,10,-1
 390 80 l 1,11,-1
 390 290 l 1,12,-1
 450 350 l 1,6,-1
400 0 m 1,13,-1
 100 0 l 1,14,15
 60 10 60 10 50 50 c 1,16,-1
 130 80 l 1,17,-1
 370 80 l 1,18,-1
 400 0 l 1,13,-1
130 650 m 1,19,-1
 130 430 l 1,20,-1
 70 370 l 1,21,-1
 50 390 l 1,22,-1
 50 680 l 1,23,-1
 130 650 l 1,19,-1
390 430 m 1,24,-1
 390 640 l 1,25,-1
 420 720 l 1,26,27
 460 710 460 710 470 670 c 1,28,-1
 470 390 l 1,29,-1
 450 370 l 1,30,-1
 390 430 l 1,24,-1
EndSplineSet
Validated: 1
EndChar

StartChar: z
Encoding: 122 122 93
Width: 520
Flags: W
LayerCount: 2
Fore
SplineSet
430 0 m 1,0,-1
 150 0 l 1,1,-1
 190 80 l 1,2,-1
 400 80 l 1,3,-1
 430 0 l 1,0,-1
330 640 m 1,4,-1
 131 640 l 1,5,-1
 51 670 l 1,6,7
 61 710 61 710 101 720 c 1,8,-1
 370 720 l 1,9,-1
 330 640 l 1,4,-1
260 430 m 1,10,-1
 390 720 l 1,11,12
 450 720 450 720 470 680 c 1,13,-1
 320 370 l 1,14,-1
 260 370 l 1,15,-1
 260 430 l 1,10,-1
270 290 m 1,16,-1
 130 0 l 1,17,18
 70 0 70 0 50 40 c 1,19,-1
 210 350 l 1,20,-1
 270 350 l 1,21,-1
 270 290 l 1,16,-1
EndSplineSet
Validated: 1
EndChar

StartChar: braceleft
Encoding: 123 123 94
Width: 430
Flags: W
LayerCount: 2
Fore
SplineSet
170 70 m 1,0,-1
 170 290 l 1,1,-1
 230 350 l 1,2,-1
 250 330 l 1,3,-1
 250 100 l 1,4,-1
 170 70 l 1,0,-1
320 640 m 1,5,-1
 251 640 l 1,6,-1
 171 670 l 1,7,8
 181 710 181 710 221 720 c 1,9,-1
 360 720 l 1,10,-1
 380 700 l 1,11,-1
 320 640 l 1,5,-1
250 620 m 1,12,-1
 250 390 l 1,13,-1
 230 370 l 1,14,-1
 170 430 l 1,15,-1
 170 650 l 1,16,-1
 250 620 l 1,12,-1
380 20 m 1,17,-1
 360 0 l 1,18,-1
 221 0 l 1,19,20
 181 10 181 10 171 50 c 1,21,-1
 251 80 l 1,22,-1
 320 80 l 1,23,-1
 380 20 l 1,17,-1
160 400 m 1,24,-1
 200 360 l 1,25,-1
 160 320 l 1,26,-1
 90 320 l 1,27,-1
 50 360 l 1,28,-1
 90 400 l 1,29,-1
 160 400 l 1,24,-1
EndSplineSet
Validated: 1
EndChar

StartChar: bar
Encoding: 124 124 95
Width: 180
Flags: W
LayerCount: 2
Fore
SplineSet
130 50 m 1,0,1
 120 10 120 10 80 0 c 1,2,-1
 50 80 l 1,3,-1
 50 640 l 1,4,-1
 80 720 l 1,5,6
 120 710 120 710 130 670 c 1,7,-1
 130 50 l 1,0,1
EndSplineSet
Validated: 1
EndChar

StartChar: braceright
Encoding: 125 125 96
Width: 430
Flags: W
LayerCount: 2
Fore
SplineSet
180 100 m 1,0,-1
 180 330 l 1,1,-1
 200 350 l 1,2,-1
 260 290 l 1,3,-1
 260 70 l 1,4,-1
 180 100 l 1,0,-1
50 700 m 1,5,-1
 70 720 l 1,6,-1
 209 720 l 1,7,8
 249 710 249 710 259 670 c 1,9,-1
 179 640 l 1,10,-1
 110 640 l 1,11,-1
 50 700 l 1,5,-1
260 650 m 1,12,-1
 260 430 l 1,13,-1
 200 370 l 1,14,-1
 180 390 l 1,15,-1
 180 620 l 1,16,-1
 260 650 l 1,12,-1
110 80 m 1,17,-1
 179 80 l 1,18,-1
 259 50 l 1,19,20
 249 10 249 10 209 0 c 1,21,-1
 70 0 l 1,22,-1
 50 20 l 1,23,-1
 110 80 l 1,17,-1
340 400 m 1,24,-1
 380 360 l 1,25,-1
 340 320 l 1,26,-1
 270 320 l 1,27,-1
 230 360 l 1,28,-1
 270 400 l 1,29,-1
 340 400 l 1,24,-1
EndSplineSet
Validated: 1
EndChar

StartChar: asciitilde
Encoding: 126 126 97
Width: 540
Flags: W
LayerCount: 2
Fore
SplineSet
290 480 m 1,0,-1
 330 440 l 1,1,-1
 290 400 l 1,2,-1
 250 400 l 1,3,-1
 210 440 l 1,4,-1
 250 480 l 1,5,-1
 290 480 l 1,0,-1
130 479 m 1,6,-1
 170 439 l 1,7,-1
 130 399 l 1,8,-1
 90 399 l 1,9,-1
 50 439 l 1,10,-1
 90 479 l 1,11,-1
 130 479 l 1,6,-1
450 480 m 1,12,-1
 490 440 l 1,13,-1
 450 400 l 1,14,-1
 410 400 l 1,15,-1
 370 440 l 1,16,-1
 410 480 l 1,17,-1
 450 480 l 1,12,-1
210 540 m 1,18,-1
 250 500 l 1,19,-1
 210 460 l 1,20,-1
 170 460 l 1,21,-1
 130 500 l 1,22,-1
 170 540 l 1,23,-1
 210 540 l 1,18,-1
370 410 m 1,24,-1
 410 370 l 1,25,-1
 370 330 l 1,26,-1
 330 330 l 1,27,-1
 290 370 l 1,28,-1
 330 410 l 1,29,-1
 370 410 l 1,24,-1
EndSplineSet
Validated: 1
EndChar

StartChar: perthousand
Encoding: 8240 8240 98
Width: 590
Flags: W
LayerCount: 2
Fore
SplineSet
279 399 m 1,0,-1
 119 240 l 1,1,2
 59 239 59 239 60 299 c 1,3,-1
 249 489 l 1,4,-1
 279 489 l 1,5,-1
 279 399 l 1,0,-1
140 640 m 1,6,-1
 130 640 l 1,7,-1
 50 670 l 1,8,9
 60 710 60 710 100 720 c 1,10,-1
 170 720 l 1,11,-1
 140 640 l 1,6,-1
130 620 m 1,12,-1
 130 560 l 1,13,-1
 100 480 l 1,14,15
 60 490 60 490 50 530 c 1,16,-1
 50 650 l 1,17,-1
 130 620 l 1,12,-1
150 560 m 1,18,-1
 160 560 l 1,19,-1
 240 530 l 1,20,21
 230 490 230 490 190 480 c 1,22,-1
 120 480 l 1,23,-1
 150 560 l 1,18,-1
160 580 m 1,24,-1
 160 640 l 1,25,-1
 190 720 l 1,26,27
 230 710 230 710 240 670 c 1,28,-1
 240 550 l 1,29,-1
 160 580 l 1,24,-1
440 160 m 1,30,-1
 430 160 l 1,31,-1
 350 190 l 1,32,33
 360 230 360 230 400 240 c 1,34,-1
 470 240 l 1,35,-1
 440 160 l 1,30,-1
431 140 m 1,36,-1
 431 80 l 1,37,-1
 401 0 l 1,38,39
 361 10 361 10 351 50 c 1,40,-1
 351 170 l 1,41,-1
 431 140 l 1,36,-1
450 80 m 1,42,-1
 460 80 l 1,43,-1
 540 50 l 1,44,45
 530 10 530 10 490 0 c 1,46,-1
 420 0 l 1,47,-1
 450 80 l 1,42,-1
460 100 m 1,48,-1
 460 160 l 1,49,-1
 490 240 l 1,50,51
 530 230 530 230 540 190 c 1,52,-1
 540 70 l 1,53,-1
 460 100 l 1,48,-1
230 100 m 1,54,-1
 230 160 l 1,55,-1
 260 240 l 1,56,57
 300 230 300 230 310 190 c 1,58,-1
 310 70 l 1,59,-1
 230 100 l 1,54,-1
220 79 m 1,60,-1
 230 79 l 1,61,-1
 310 49 l 1,62,63
 300 9 300 9 260 -1 c 1,64,-1
 190 -1 l 1,65,-1
 220 79 l 1,60,-1
200 140 m 1,66,-1
 200 80 l 1,67,-1
 170 0 l 1,68,69
 130 10 130 10 120 50 c 1,70,-1
 120 170 l 1,71,-1
 200 140 l 1,66,-1
210 160 m 1,72,-1
 200 160 l 1,73,-1
 120 190 l 1,74,75
 130 230 130 230 170 240 c 1,76,-1
 240 240 l 1,77,-1
 210 160 l 1,72,-1
290 531 m 1,78,-1
 450 690 l 1,79,80
 510 691 510 691 509 631 c 1,81,-1
 320 440 l 1,82,-1
 290 441 l 1,83,-1
 290 531 l 1,78,-1
EndSplineSet
Validated: 33
EndChar

StartChar: quoteleft
Encoding: 8216 8216 99
Width: 180
Flags: W
LayerCount: 2
Fore
SplineSet
130 520 m 1,0,-1
 50 520 l 1,1,-1
 50 680 l 1,2,-1
 90 720 l 1,3,-1
 130 680 l 1,4,-1
 130 520 l 1,0,-1
EndSplineSet
Validated: 1
EndChar

StartChar: quoteright
Encoding: 8217 8217 100
Width: 180
Flags: W
LayerCount: 2
Fore
SplineSet
130 560 m 1,0,-1
 90 520 l 1,1,-1
 50 560 l 1,2,-1
 50 720 l 1,3,-1
 130 720 l 1,4,-1
 130 560 l 1,0,-1
EndSplineSet
Validated: 1
EndChar

StartChar: quotedblleft
Encoding: 8220 8220 101
Width: 340
Flags: W
LayerCount: 2
Fore
SplineSet
130 521 m 1,0,-1
 50 521 l 1,1,-1
 50 681 l 1,2,-1
 90 721 l 1,3,-1
 130 681 l 1,4,-1
 130 521 l 1,0,-1
290 520 m 1,5,-1
 210 520 l 1,6,-1
 210 680 l 1,7,-1
 250 720 l 1,8,-1
 290 680 l 1,9,-1
 290 520 l 1,5,-1
EndSplineSet
Validated: 1
EndChar

StartChar: quotedblright
Encoding: 8221 8221 102
Width: 341
Flags: W
LayerCount: 2
Fore
SplineSet
130 560 m 1,0,-1
 90 520 l 1,1,-1
 50 560 l 1,2,-1
 50 720 l 1,3,-1
 130 720 l 1,4,-1
 130 560 l 1,0,-1
291 561 m 1,5,-1
 251 521 l 1,6,-1
 211 561 l 1,7,-1
 211 721 l 1,8,-1
 291 721 l 1,9,-1
 291 561 l 1,5,-1
EndSplineSet
Validated: 1
EndChar

StartChar: bullet
Encoding: 8226 8226 103
Width: 390
Flags: W
LayerCount: 2
Fore
SplineSet
195 220 m 256,0,1
 135 220 135 220 92.5 262.5 c 128,-1,2
 50 305 50 305 50 365 c 256,3,4
 50 425 50 425 92.5 467.5 c 128,-1,5
 135 510 135 510 195 510 c 256,6,7
 255 510 255 510 297.5 467.5 c 128,-1,8
 340 425 340 425 340 365 c 256,9,10
 340 305 340 305 297.5 262.5 c 128,-1,11
 255 220 255 220 195 220 c 256,0,1
EndSplineSet
Validated: 1
EndChar

StartChar: endash
Encoding: 8211 8211 104
Width: 540
Flags: W
LayerCount: 2
Fore
SplineSet
450 400 m 1,0,-1
 490 360 l 1,1,-1
 450 320 l 1,2,-1
 90 320 l 1,3,-1
 50 360 l 1,4,-1
 90 400 l 1,5,-1
 450 400 l 1,0,-1
EndSplineSet
Validated: 1
EndChar

StartChar: emdash
Encoding: 8212 8212 105
Width: 580
Flags: W
LayerCount: 2
Fore
SplineSet
490 400 m 1,0,-1
 530 360 l 1,1,-1
 490 320 l 1,2,-1
 90 320 l 1,3,-1
 50 360 l 1,4,-1
 90 400 l 1,5,-1
 490 400 l 1,0,-1
EndSplineSet
Validated: 1
EndChar

StartChar: copyright
Encoding: 169 169 106
Width: 580
Flags: W
LayerCount: 2
Fore
SplineSet
460 0 m 1,0,-1
 100 0 l 1,1,2
 60 10 60 10 50 50 c 1,3,-1
 130 80 l 1,4,-1
 430 80 l 1,5,-1
 460 0 l 1,0,-1
430 640 m 1,6,-1
 131 640 l 1,7,-1
 51 670 l 1,8,9
 61 710 61 710 101 720 c 1,10,-1
 460 720 l 1,11,-1
 430 640 l 1,6,-1
130 100 m 1,12,-1
 50 70 l 1,13,-1
 50 650 l 1,14,-1
 130 620 l 1,15,-1
 130 100 l 1,12,-1
530 50 m 1,16,17
 520 10 520 10 480 0 c 1,18,-1
 450 80 l 1,19,-1
 450 640 l 1,20,-1
 480 720 l 1,21,22
 520 710 520 710 530 670 c 1,23,-1
 530 50 l 1,16,17
380 480 m 1,24,-1
 250 480 l 1,25,-1
 170 510 l 1,26,27
 180 550 180 550 220 560 c 1,28,-1
 410 560 l 1,29,-1
 380 480 l 1,24,-1
250 460 m 1,30,-1
 250 240 l 1,31,-1
 220 160 l 1,32,33
 180 170 180 170 170 210 c 1,34,-1
 170 490 l 1,35,-1
 250 460 l 1,30,-1
270 240 m 1,36,-1
 330 240 l 1,37,-1
 410 210 l 1,38,39
 400 170 400 170 360 160 c 1,40,-1
 240 160 l 1,41,-1
 270 240 l 1,36,-1
EndSplineSet
Validated: 1
EndChar
